<svg xmlns="http://www.w3.org/2000/svg" width="160" height="160" fill="none"><path fill="#1B1B20" d="M39.1 8.3h-1.9l-.9.1h-3.5l-.7.1-.7.3a1.6 1.6 0 0 0-.4.4l-.2.2-.2.4-.2.6-.1 2V21a59.9 59.9 0 0 0 0 3.3l.1 1a139.4 139.4 0 0 0 .3 4.3.7.7 0 0 0 1.2-.5v-2.4-1-1a35.3 35.3 0 0 1-.2-4.4v-8.6-1l.2-.4v-.1l.1-.1.2-.1.4-.1H36l1-.2a11.4 11.4 0 0 1 1.8 0 8 8 0 0 1 1.6 0l.7.1.2.1.2.2a5.3 5.3 0 0 1 .4.7 11.8 11.8 0 0 1 .7 2.8v1l.1 1.2.1 2.2.2 2a70.8 70.8 0 0 1 0 4.2v1.7l.1 1.7v2a.7.7 0 1 0 1.4-.4v-.4-.5-1-1.9l-.1-2.1a141.8 141.8 0 0 0-.1-4.3v-1l-.1-1.2c0-.7 0-1.5-.2-2.2v-1.2l-.2-1-.2-.7-.2-.7c0-.4-.2-.8-.4-1.2l-.5-.7-.7-.5a2 2 0 0 0-.7-.2H40.2l-.6-.1H39z"/><path fill="#1B1B20" d="M43.9 30.3a1 1 0 0 1-.9-.7v-1.1-.9a30 30 0 0 0-.2-2.5v-1-1.8a73.7 73.7 0 0 0-.1-3.2V18l-.1-2-.1-1v-.5a22 22 0 0 0-.4-2.1V12a9 9 0 0 0-.5-1.4l-.2-.4-.2-.1H41V10h-.7l-.8-.1H36.8l-2.5.1a15.6 15.6 0 0 0-2 .2h-.1l-.1.1-.1.5v9.5a94.8 94.8 0 0 0 0 5.2v1.2a160.1 160.1 0 0 0 0 2.7l-.1.3a1 1 0 0 1-.7.3 1 1 0 0 1-.9-.9v-3.8l-.1-1v-1L30 21V21v-8.8l.1-1.9a3 3 0 0 1 .4-1l.2-.3.2-.1.3-.3.8-.3h3.6l.6-.1a7.4 7.4 0 0 0 1-.1 19.2 19.2 0 0 1 1.9 0h1.6l.3.1.8.2.8.6.4.7c.3.4.4.8.6 1.3v.3l.1.4v.2l.2.4v.1l.1 1 .1 1v.3l.2 2.1v2l.1.2a40 40 0 0 1 .1 4.3v2.1a23 23 0 0 1 .2 2.9v.8l-.1.7a1 1 0 0 1-.8.5zM39.3 9.5h.4a15.9 15.9 0 0 0 1.5.1l.2.2.3.2a5 5 0 0 1 .4.7l.3 1.2.1.3a13.9 13.9 0 0 1 .3 2.1v.6l.1.9.1 2v1.3l.2 1V24.3a10.7 10.7 0 0 0 0 1.1v.5l.1 1.7v1.9a.5.5 0 0 0 .7.3.5.5 0 0 0 .4-.4v-.2V28.3v-1l-.2-1.9v-2.1A155.8 155.8 0 0 0 44 19v-.2-1.1-.9l-.2-2v-.4l-.2-1-.1-1-.1-.4v-.3l-.2-.3V11l-.5-1.2-.4-.6a2 2 0 0 0-.6-.5 1.9 1.9 0 0 0-1-.2H40l-.4-.1H39a58 58 0 0 0-1.8 0h-.5a7.9 7.9 0 0 1-1.1.1H32.8l-.6.1c-.3 0-.5.2-.7.3l-.3.2a2.2 2.2 0 0 0-.3.3l-.1.3-.2.6-.1 1.8v8.9a57 57 0 0 0 0 3.2l.1 1a146.7 146.7 0 0 0 .2 4.2l.4.1a.5.5 0 0 0 .5-.3v-.2a205.3 205.3 0 0 1 0-3.4v-.1-1l-.2-2.1v-2.2-8.6-1a3 3 0 0 1 .3-.6l.1-.2h.2l.5-.2H34.3l2.4-.1h.2a11.6 11.6 0 0 1 2-.1h.4z"/><path fill="#1B1B20" d="M30.5 29V30a8.6 8.6 0 0 0 .2 1.8l.2.3a2 2 0 0 0 .5.5l.5.2.5.1H37l2-.1h2l.9.1h.6a2.4 2.4 0 0 0 1.5-.8l.7-1v-.6l.1-.5v-1a.7.7 0 0 0-.1-.5.7.7 0 0 0-1 0c-.2.1-.2.3-.2.5l-.1 1.5v.2l-.1.1a4 4 0 0 1-.4.5h-.3l-.5.2-1.9-.1h-2l-2 .1h-3.9-.1l-.1-.2-.2-.5v-1-1a.7.7 0 1 0-1.4 0z"/><path fill="#1B1B20" d="M33 33.3a4.5 4.5 0 0 1-1.2-.2l-.5-.2a1.9 1.9 0 0 1-.6-.6 2.7 2.7 0 0 1-.3-1l-.1-1.2V29a.9.9 0 1 1 1.8 0v.4a12.5 12.5 0 0 0 0 1.5l.1.5h.1l.4.2h3.7a40.6 40.6 0 0 1 6.1-.2l.2-.1.4-.4v-.2l.1-.8V29l.3-.6a1 1 0 0 1 1.3 0 .9.9 0 0 1 .2.7v1a9.3 9.3 0 0 1-.1 1.1c-.2.5-.4.9-.8 1.2a3 3 0 0 1-.5.4l-.6.2-.4.1h-.2a4.6 4.6 0 0 1-1.4 0h-1a74 74 0 0 0-3 0l-.5.1h-3.4zm-1.8-4.9a.5.5 0 0 0-.5.5v.3a14.8 14.8 0 0 0 0 2l.2.6a1.5 1.5 0 0 0 .6.7 2.7 2.7 0 0 0 1 .3h.6a34.7 34.7 0 0 0 1.9 0h2l2-.1h2l.9.1h.7l.3-.1.5-.3c.2 0 .3-.2.5-.3.3-.3.5-.6.6-1v-.5l.1-.5v-.3-.8-.3a.5.5 0 0 0-.8 0l-.1.4v.7a10.5 10.5 0 0 1-.2 1.1v.2l-.5.4-.3.2a3.1 3.1 0 0 1-1.7 0h-2.7l-1.9.1h-4.2l-.1-.1-.2-.2-.2-.6a12 12 0 0 1 0-1.6v-.4a.5.5 0 0 0-.2-.3.5.5 0 0 0-.3-.2zM77.6 8.1a9.6 9.6 0 0 0-1.4.2l-.6.1c-.4.2-.7.4-1 .8a3 3 0 0 0-.6 1l-.2 1-.2 1.2V27a81.6 81.6 0 0 0 .3 3.8l.2.2.1.3.3.3.3.2a1.6 1.6 0 0 0 .5.2h.4l1.1.2h1l1 .1h4.1l1-.1h.8l.6-.2h.4l.4-.2h.1l.4-.2.3-.2.2-.3.1-.3.2-.4a3.7 3.7 0 0 0 0-1v-3.2-4-4.4-.6-.7l-.1-1.3-.1-.6V14l-.2-1.3a9.7 9.7 0 0 0-.4-2A4.5 4.5 0 0 0 85.5 9l-1.1-.7h-1.5a11.6 11.6 0 0 1-2.3-.2h-3zm1 1.4h2.3l.7.1H84l.2.1a2.3 2.3 0 0 1 .7.6l.4.6.2.7.2.8v.7l.1.5v1l.2 1v2c.2 1.5.2 3 .2 4.5V29.7l-.2.7h-.2l-.4.2-.6.1a7 7 0 0 1-.5 0l-.6.1h.1l-2 .1h-4l-1-.1-1-.1h-.2v-.3a.6.6 0 0 0-.4-.4V28 24a14 14 0 0 0-.1-2.1V13.5a10.3 10.3 0 0 1 .6-3.4l.2-.2.2-.1.3-.1.5-.1h1.7zm7.3 20.9zm-10.5.1zm0 0zm.1.2zm8.3 1.5zm0-1.4h-.1.1z"/><path fill="#1B1B20" d="M79 32.5h-.2a12.6 12.6 0 0 1-1.1 0 38.4 38.4 0 0 0-1.7-.2h-.3a5.5 5.5 0 0 1-.7-.1l-.3-.2-.3-.2-.1-.1a1.2 1.2 0 0 1-.3-.5 1 1 0 0 1-.4-.8l-.1-3.3v-2.6V23c-.2-1.4-.2-2.8-.2-4.2v-.1-5.2-.9l.1-.1.2-1.2.2-1 .6-1.2c.3-.3.7-.6 1.2-.8a4.2 4.2 0 0 1 1.1-.2h7l.7.1c.5.2.9.4 1.2.7l.7.8a4.7 4.7 0 0 1 .7 1.8v.2l.2 1v.3l.2 1v1.3l.1 1.3v.7l.1.6v12.7l-.2.4-.1.3-.2.3-.4.3-.4.2H86l-.3.1h-.2l-.2.1a3.5 3.5 0 0 1-1 .1h-.5l-1 .2H79zM77.6 8.3a9.8 9.8 0 0 0-1.4.2l-.4.1h-.1l-1 .7-.5 1-.2.9-.2 1.2V18.7a55.4 55.4 0 0 0 0 5.8V27a79.5 79.5 0 0 0 .2 3.7l.2.2h.1l.1.3.2.2.1.1.2.2h.2v.1h.7l.3.1h.7l1 .1h.5l.5.1h4.1a12.5 12.5 0 0 0 1.4-.2 5.2 5.2 0 0 0 1 0v-.1h.4l.2-.1h.2v-.1l.4-.1.3-.3.1-.2.1-.2.1-.4.2-.5v-.1-8.3-3.7l-.1-.6v-.7l-.1-1.2V15l-.1-.4v-.4-.3l-.2-1v-.3l-.1-1v-.2a4.7 4.7 0 0 0-.7-1.7l-.6-.7-1-.6a3 3 0 0 0-.7 0H83a12.6 12.6 0 0 1-2.3-.2h-3zm1.6 22.8H78l-.5-.1H76.7a8 8 0 0 1-.7-.1h-.3-.4V30.5v-.2a.4.4 0 0 0-.3-.3V30l-.1-1.9V24v-1l-.1-1.1v-8.4V12l.4-1.7.2-.4.3-.2.2-.2.4-.1.4-.1H84l.3.1.3.2.5.5.4.6a4 4 0 0 1 .3 1v.7l.1.5v.3l.1.2a13.3 13.3 0 0 1 .1 1.6v.4l.1 1 .1 1.1.1 3.8V29.7l-.2.8v.1h-.2l-.3.1h-.2l-.3.1-.4.1h-.4l-.6.1-2 .1H79.3zm-3.6-.6H77l.7.1h.6l.5.1h3.1l2-.1h.9l.2-.1.4-.1h.2l.1-.1h.1l.2-.6V21.4l-.1-3.7a16 16 0 0 1-.1-2.1 10.4 10.4 0 0 0-.1-1v-1l-.1-.2v-.3l-.1-.5v-.2l-.1-.5v-.3L85 11l-.3-.5-.4-.4-.3-.1H81.6l-.6-.2H78.3a13.8 13.8 0 0 0-1.9.2h-.3l-.2.2-.2.2-.1.2-.4 1.6V26.3a170.5 170.5 0 0 0 .1 3.6c.2.1.3.3.3.4v.2z"/><path fill="#FFD000" d="M19.5 33.6h-.2a24.3 24.3 0 0 0-1.7 0 1.7 1.7 0 0 0-.8.5l-.3.4c-.2.3-.2.6-.2.9v1.4a953.5 953.5 0 0 1 0 3.6v.2l.1 1.4v1.5l.1 1.5v2.3l.1.8v6.5a31 31 0 0 0 .2 3v6.6l.1 3.3.1 1.6v1.5a217.5 217.5 0 0 1 .2 7.5v2.2l.1.3v1.3a36.5 36.5 0 0 1 0 1.5l.1 1.1v.5a75.8 75.8 0 0 0 .3 4.7v1.8l.1 1.4v2.6l.1.3v7.1a27.8 27.8 0 0 0 0 2c-.2 2-.2 4-.2 5.8V114.5l-.1 1.5a57.1 57.1 0 0 1-.2 4.7v6.3l-.1 3v3a31.6 31.6 0 0 0-.2 1.5v.3a10.7 10.7 0 0 0 .2 2.2l.3.6.6.6 1 .4h1l.5.1a29.8 29.8 0 0 0 4.5.3h5.3a97.8 97.8 0 0 0 5.3.1h3.3l1.6-.1a89.2 89.2 0 0 1 7-.2H53l3.7-.1H60.2l1.6-.1h1.8l3.4-.2h5.3l1.7-.1h21.2l1.5-.1h1.7l1.6-.2h.1l1.8-.1h1.7l.8-.1h.9l3.6-.1H110.6l1-.1h.6l1-.1h.7l1-.1.7-.1h.7l1-.1h.6l1.1-.1 1-.1a53.8 53.8 0 0 0 5-.5l.7-.1 1-.2a.7.7 0 0 0 .5-.9.7.7 0 0 0-.6-.5h-.1a13.9 13.9 0 0 0-.2-1.5v-.1a16 16 0 0 0-.2-2.3v-.7-.9l-.1-.5a34.6 34.6 0 0 1 0-4.4v-.3a62.4 62.4 0 0 1 0-3.2v-1.2l.1-5.8a148.2 148.2 0 0 1 .1-3.2V85.6a161.9 161.9 0 0 0-.2-9V75v-1-.7V71.7l-.2-3.5v-1.5l-.2-1.9v-1.7l-.2-1.8-.1-2.6v-1l-.1-2.9v-.5a175.6 175.6 0 0 0-.1-5.4V48l-.1-.8-.3-3.4v-.4a26.1 26.1 0 0 0-.9-4.3v-.3a12.4 12.4 0 0 0-1-2.1 3.6 3.6 0 0 0-1.4-1.2h-.1a10.2 10.2 0 0 0-2-.6l-1.4-.3h-.6l-2.8-.5a99.5 99.5 0 0 0-5-.3H107.9l-1.6-.1H95.7l-1 .1h-.9l-.9.1h-.7a125.1 125.1 0 0 0-3.4.2h-.3a59.7 59.7 0 0 0-1.6.1h-.5l-1.2.1h-2l-1.4.1a101.2 101.2 0 0 1-3.4 0l-2-.1H75l-5.7.1h-1l-2.8.3a102.3 102.3 0 0 1-5.3.2h-.7a36 36 0 0 0-4.4.1l-2 .1h-1.5a423.3 423.3 0 0 0-7.1.2h-1.7a82.6 82.6 0 0 1-6.5-.3h-1l-1.2-.1h-.8a21.4 21.4 0 0 1-3.4-.6l-1-.2-1.7-.2H25.8l-1.4-.1-.9-.1h-.2l-.6-.1h-3.3z"/><path fill="#FFD000" d="M125.4 127.5v4.9l-.2 1.6v.7l-.1.2a.7.7 0 0 0 .4.6.7.7 0 0 0 .7 0 .7.7 0 0 0 .3-.4 34.3 34.3 0 0 0 .3-4v-3.6a.7.7 0 1 0-1.4 0zM125 117a.7.7 0 1 0 1.5 0 .7.7 0 0 0-1.4 0z"/><path fill="#FFD000" d="M120.2 57.1c-.2 0-.3.2-.4.3v.6l.7 5.3.4 2.5.4 2.3.3 2.4.3 2.2.3 2.7a144.7 144.7 0 0 1 .3 4l.1 1 .3 1.8.3 2.4.2 2.2a124.4 124.4 0 0 0 .6 4.7l.2 2.4.3 2.5.2 2.4.2 2.4v1.1l.2 1.2v7.2l.1 4.8.2 2.4.2 2.3.1 1.3v1.1l.2 1.2v1.2l.2 1.1v5.9l-.1 2.4a.7.7 0 0 0 .8.7c.2 0 .3 0 .4-.2l.2-.5.1-2.6v-2.4-2.3a27.4 27.4 0 0 0-.2-2.3v-1.3l-.1-1.2-.2-2.3-.1-1.2-.1-1.2v-1.2l-.2-1.2a36.6 36.6 0 0 1 0-4.8v-4.7-1.2l-.1-1.2a63.2 63.2 0 0 0-.3-3.6l-.1-1.2-.3-2.4-.2-2.7-.2-1.3a86.6 86.6 0 0 0-.4-3.7l-.3-2.4c0-.9-.2-1.7-.3-2.5 0-.8-.2-1.5-.3-2.2a71.2 71.2 0 0 1-.2-2.5l-.2-2.4-.3-2.6-.3-2.7-.8-5.2-.3-2.5-.4-2.5-.5-3.3a.7.7 0 0 0-.7-.5h-.2z"/><path fill="#1B1B20" d="M128 90.9h-.3l-.7.4a51 51 0 0 0-2 1l-.6.4-.2.2-1.3.7-.5.3-1 .6-.9.6a32.4 32.4 0 0 1-.8.5 14.2 14.2 0 0 1-1 .7h-.2a114.6 114.6 0 0 0-2.3 1.5l-.7.4-.1.1-.3.2-.3.2c-.2 0-.3.2-.5.3-.2 0-.3.2-.5.3l-.5.3-.2.1-.1.1a22.6 22.6 0 0 0-1.7 1.3l-.1.3c-.1.3-.2.5 0 .8l.3.6.6.4.2.2 1.4.9.4.2a26.4 26.4 0 0 1 1 .6l.3.2 1.6 1h.2l1.5.9c.3 0 .5.2.7.3l1 .5.8.4.2.1.7.4.7.5a27.7 27.7 0 0 0 1.2.7l.6.3.7.4a103.2 103.2 0 0 1 2.9 1.4h.4a.8.8 0 0 0 .6-.2c.2-.1.3-.3.3-.5v-.1-.4-.5-.2-.7-3h.9a3.2 3.2 0 0 1 1 0l.2.1.3.1.4.1.7.4a13.7 13.7 0 0 0 1 .5l.3.2.3.2.5.3.2.2a38.3 38.3 0 0 1 1.2.8l.3.2.6.6.5.4.6.5.4.5a20.7 20.7 0 0 1 1.2 1.8l.3.5h.1a14.9 14.9 0 0 1 .4.7l.4.5v.2l.5.7.1.2.9 1.7.2.5v.2l.2.3.3.8.1.3.2.5v.1l.1.5v.2a27.3 27.3 0 0 1 .7 4.4v.2a13.6 13.6 0 0 1-.3 2.7v.6l-.2.6a21.1 21.1 0 0 0-.4 1.5l-.3.5-.2.4-.5.9-.3.5a10 10 0 0 1-1 1.6l-.2.1-.2.3-.2.2a6.6 6.6 0 0 0-.6.6l-.2.1-.4.4a8 8 0 0 1-.8.6l-.3.2-.9.5a22 22 0 0 0-.9.5l-.2.2a17.6 17.6 0 0 1-.8.4l-.3.2-.6.3h-.1l-1 .5h-.4l-.9.4a15.3 15.3 0 0 1-3 .7h-1.1l-2.1.1H125a14.8 14.8 0 0 1-3-.2h-.1l-1-.2h-.3a14.5 14.5 0 0 1-1.9-.6l-.6-.2-.3-.1-.3-.1-.5-.2-.4-.2-.4-.4-.2-.1a13.1 13.1 0 0 0-1.5-1.6v-.2l-.2-.2-.2-.2-.1-.1-.5-.6-.1-.1-.2-.3v.1l-.6-.9v-.1l-.2-.3-.2-.2a28.5 28.5 0 0 1-1.4-2.4 62.5 62.5 0 0 1-.4-1.1l-.1-.2-.1-.3-.1-.3-.4-1.1-.4-2v-.6l-.2-1.3v-.5-1.1a36.6 36.6 0 0 0 0-1v-.2l.1-.4v-.1a9.5 9.5 0 0 0 .1-1l.2-.8.1-.5.1-.6a13.2 13.2 0 0 1 .4-1.9l.2-.6a25.7 25.7 0 0 0 .5-2.5l.2-.5v-.1l.2-.6.2-.6.1-.8a1 1 0 0 0-.3-.8 1 1 0 0 0-.6-.3h-.4-.2l-.3-.1h-2.2H105.8l-.6.1h-.7l-1.6.1a.7.7 0 0 0-.6.3l-.4.5a4.4 4.4 0 0 0-.5.8 14.8 14.8 0 0 0-1.2 3.2l-.1.5-.2 1-.2 1.3-.1.6v.5a53.1 53.1 0 0 0-.5 4.8v.3a35 35 0 0 0 .1 3v.5a.7.7 0 0 0 .2.5v.4l.2.7a18 18 0 0 0 .3 1.2v.4l.2.3v.4a20.6 20.6 0 0 1 .5 1.6v.1a19 19 0 0 0 .4 1l.2.5v.2l.3.6a11.2 11.2 0 0 0 .6 1.2l.2.4.1.2.3.5.1.2a9.5 9.5 0 0 1 .6 1l.2.3.2.3.5.7.2.3.4.5.4.4.2.2.2.3.1.2a6 6 0 0 0 .7.9l.2.1c0 .2.2.3.3.4l.2.1.2.3.3.3.6.5.2.2a65.5 65.5 0 0 0 .7.6l.5.4.1.1a21 21 0 0 0 1.5 1l.4.3.2.1.3.2h.1l.4.3h.2l.1.1a21 21 0 0 0 1.8 1h.2l.2.1.5.2.8.3c.4 0 .7.2 1 .3l.4.2.3.1h.1l1 .2h.2l.3.1h.6v.1h.6l.1.1h.4l.4.1h.4l.3.2h.4l.1.1a6 6 0 0 0 1 .2h.1a6.7 6.7 0 0 0 .8.1H126.6l.2.1h.2a1 1 0 0 0 .2 0h.3l.4-.2h.3a8.9 8.9 0 0 0 2.1-.4l.5-.1.6-.2h.4a19.4 19.4 0 0 0 1.2-.4h.2a62.3 62.3 0 0 0 1.4-.4l.5-.2h.2l1.7-.6 1-.5.8-.4.3-.2c.2 0 .3 0 .5-.2l.2-.1.5-.3 1.6-.8.7-.5h.1l.4-.2.5-.4h.1l.4-.4h.1l.3-.2 1-1 .3-.2.2-.1.4-.4a8.3 8.3 0 0 0 1-1l.6-.6a18.2 18.2 0 0 0 1.5-1.9c0-.2.2-.3.3-.5v-.1c.4-.4.6-.9.9-1.3l.1-.3.5-.9.2-.3c.2-.4.5-.8.6-1.3l.7-1.7.3-.8v-.2l.2-.2v-.2l.1-.3a8.8 8.8 0 0 0 .4-1.6v-.2l.2-1.2V127.8l.1-.3v-.5l.2-.7a4.9 4.9 0 0 0 .3-1.4v-.2l.1-.4a29.3 29.3 0 0 0-.1-2.5l-.1-.5a16 16 0 0 0-.4-2.3v-.2l-.2-.3v-.1l-.1-.6a36.1 36.1 0 0 0-.9-2.6v-.2l-.4-.8v-.3l-.2-.2-.4-.8-.1-.4a21.8 21.8 0 0 0-1.3-2.2l-.3-.6-.2-.3-.3-.5a23 23 0 0 0-1.3-2.1v-.1l-.2-.2-.2-.2a11.4 11.4 0 0 0-.5-.6l-.1-.2-.1-.1-.2-.1a35.4 35.4 0 0 1-1.8-1.8 26.7 26.7 0 0 0-2.7-2l-.5-.2a25.5 25.5 0 0 0-4.4-2l-.2-.1-.7-.3h-.4l-.3-.2h-.4l-.4-.2a60.8 60.8 0 0 1-2-.6 31.5 31.5 0 0 1-2.2-.6l-.3-.1h-.2l-.7-.2v-3-1.3c0-.4 0-.8-.2-1.2a1 1 0 0 0-1-.7h-.3a.7.7 0 0 0-.3 0zm.1 1.6h.2l.1-.1v5a.7.7 0 0 0 .5 1l1 .2h.5l.5.2c.5 0 1 .2 1.5.4h.2l.4.2a14.9 14.9 0 0 1 1.4.4l.3.1 1.2.4a8.8 8.8 0 0 1 .7.2l.7.2h.1l.5.2.3.1.1.1h.1l.4.2h.3l2.2 1.2.1.1 1.3.8.8.6.2.1 1.6 1.4.5.6.3.3.1.1.6.6.3.5.1.1.3.5.2.2.2.5a14.7 14.7 0 0 0 .6.9l.6 1 1 1.7.8 1.7v.1l.3.6a46.8 46.8 0 0 1 .9 2.5v.1l.1.4.3 1 .2.7a13.4 13.4 0 0 1 .5 2.8v2.3l-.1.3V125.6l-.2.5v.1l-.2 1-.1 1.3v.6l-.1.2v.3a10 10 0 0 1-.6 2.3l-.2.3a82.6 82.6 0 0 1-.8 2.2v.3h-.1a13.3 13.3 0 0 1-.6 1.2l-.2.3c0 .2-.2.3-.3.5a35.7 35.7 0 0 0-1.3 2.2l-.1.2-.3.4-.2.2a16 16 0 0 1-.7 1l-.2.2a10 10 0 0 0-.6.6 9 9 0 0 1-.6.6l-.5.5-.3.2-.2.2v.1l-1 .8-.3.2-.4.3a16 16 0 0 1-1 .7l-.2.1-.6.4a19.6 19.6 0 0 1-3.2 1.6l-.7.4-1 .5-1.4.4-.4.1-.3.1h-.1a34.5 34.5 0 0 1-1.3.4l-.3.1-.7.2-.5.1-.4.1-.6.2h-.5c-.3.2-.6.2-1 .3a14 14 0 0 1-1.2.1h-.5l-.5.2H126.2a2 2 0 0 0-.4 0h-1.2l-.1-.1h-.3-.2l-.2-.1a6 6 0 0 1-.3-.1h-.1a5 5 0 0 0-.5-.2 3 3 0 0 0-.4 0l-.3-.1h-.2l-.5-.1H121v-.1h-.5l-.2-.1h-.3-.2l-.1-.1h-.3l-.6-.2-.5-.1-.6-.3h-.3l-.3-.2h-.2l-1-.4-.3-.2-.3-.1-.6-.3a172.9 172.9 0 0 1-1.7-.9l-.2-.1-.3-.2-.3-.1a11.3 11.3 0 0 1-2-1.4v-.1l-.6-.5-.2-.2a25.5 25.5 0 0 1-.6-.6l-.1-.1-.4-.3a11 11 0 0 1-.5-.5l-.3-.4-.2-.1-.1-.3h-.1v-.1l-.2-.2-.2-.3a4 4 0 0 0-.7-.8v-.1l-.4-.5-.2-.1v-.1l-.3-.4c0-.2-.2-.3-.3-.4v-.2a8.4 8.4 0 0 1-.7-1l-.3-.6-.4-.7-.6-1.3-.4-1-.2-.4-.4-1.6-.2-.4v-.4l-.1-.2-.1-.5a13.5 13.5 0 0 1-.3-1l-.2-.6v-.1a75.6 75.6 0 0 0-.2-1.6v-.4a9.1 9.1 0 0 0-.1-1v-2.1-1.5-.5l.1-.7v-.3l.2-1v-.7l.3-1.2v-.1c0-.5.1-1 .3-1.4l.2-.8.1-.5.1-.3.4-1.1.2-.5.1-.2.3-.6h.1v-.1l.2-.2a18 18 0 0 0 2-.2 19.8 19.8 0 0 0 1.6 0h.9a66.2 66.2 0 0 0 2.4 0h.1l-.3.9v.2l-.5 1.6v.4l-.4 1.6v.2l-.4 1.6-.4 1.9-.2 1V122l-.2 1.2V125.7l.2 1.3v.1a7.9 7.9 0 0 0 .1.7v.2a24.3 24.3 0 0 0 .4 1.7c0 .4.2.7.3 1l.1.3.1.2.1.3v.2l.5.8v.2l.1.2.3.6.4.8 1 1.4.2.4.2.2.4.6v.1h.1l.2.2a15.2 15.2 0 0 0 1 1.2c0 .2.2.3.3.5l.3.3.4.4.7.8v.1l.4.2a3.3 3.3 0 0 0 1.3.8l.5.2h.3l.7.3h.2l.3.1 1.3.4h.2l.6.2h.5l.4.1h.1a27.2 27.2 0 0 0 2.9.3h3.3l.5-.1h.4l.5-.1a18 18 0 0 1 1-.1h.2l.7-.2a13.5 13.5 0 0 0 2.2-.7l.4-.1a27.3 27.3 0 0 0 2.4-1.1l.2-.2c.2 0 .4-.2.5-.3l.9-.5.3-.2h.2l.3-.3.4-.3.3-.1.2-.1a10.5 10.5 0 0 0 1.3-1l.1-.2.2-.1.5-.6.2-.1v-.1l.2-.2h.1a7.3 7.3 0 0 0 1.3-2 12.5 12.5 0 0 1 .7-1.3l.2-.4.2-.4.4-1 .2-.6.1-.5a11.4 11.4 0 0 0 .3-1.4 24 24 0 0 0 .2-4l-.2-1.9-.4-1.8v-.1l-.2-.6v-.1a6 6 0 0 0-.2-.6v-.2l-.4-1-.3-.5-.2-.4a16 16 0 0 0-1.2-2.4l-.3-.6-.2-.2a10.2 10.2 0 0 0-.5-.8l-.1-.2a12 12 0 0 1-.5-.7 25.2 25.2 0 0 1-1.1-1.6v-.1a6 6 0 0 0-.6-.6 23.9 23.9 0 0 0-2-1.9h-.2l-1-.8a29 29 0 0 0-1.4-1h-.2l-.2-.1-.5-.3a39.4 39.4 0 0 1-1.7-.8l-.5-.1a9.2 9.2 0 0 0-1.7-.3h-.3l-1 .2-.2.1a.7.7 0 0 0-.5.5l-.1.4V110.9l-.1-.2-.3-.1a50.1 50.1 0 0 0-2.9-1.7l-.3-.1-.8-.5a21.1 21.1 0 0 0-1.4-.9 14.4 14.4 0 0 1-1-.6 121.9 121.9 0 0 0-3.5-1.7l-1.6-1-.4-.2a20 20 0 0 0-1.1-.7h-.2a16 16 0 0 1-1-.7l-.6-.4-.2-.2h-.1c.5-.5 1-.8 1.7-1.2h.1a47 47 0 0 0 1.6-1v-.1l.6-.3.5-.4.2-.1a33.3 33.3 0 0 1 2.4-1.5l.3-.2h.2l1-.7.1-.1.6-.4h.2v-.1l.5-.3.4-.3h.1l1-.6 1.1-.7h.1l.8-.5 1.6-.8.2-.2h.2z"/><path fill="#1B1B20" d="M127.1 152h-.4-2.1l-.3-.1h-.2a9.3 9.3 0 0 1-.8-.2h-.2l-.2-.1-.3-.1h-.3l-.3-.1-.5-.1h-.4l-.2-.1h-.5l-.5-.1h-.1l-.3-.1h-.1l-1.1-.2a3.7 3.7 0 0 1-.8-.3 26 26 0 0 0-1-.4l-.7-.3h-.2l-.4-.2h-.2l-.2-.2-.8-.3-1-.6-.4-.1-.4-.3-.3-.2h-.2l-.5-.3a11 11 0 0 1-.8-.5l-.7-.6-.1-.1-.5-.4-.2-.2-.7-.6-.6-.6-.3-.2-.3-.3-.1-.1-.4-.4-.1-.2-.3-.3-.4-.5-.2-.2-.1-.3-.2-.3v.3l-1-1.4a9.4 9.4 0 0 1-1-1.3c0-.3-.2-.5-.3-.7l-.2-.3-.2-.3-.2-.5-.1-.2a11.8 11.8 0 0 0-.5-.8 11.8 11.8 0 0 1-.6-1.4v-.2l-.3-.5v-.3l-.3-.7v-.1l-.3-1-.2-.6v-.4l-.2-.3v-.4l-.2-.4-.2-.9v-.7l-.1-.3a.8.8 0 0 1-.2-.6v-1-.5a11.2 11.2 0 0 1-.2-2v-.2-.9a52 52 0 0 1 .5-4.5v-.6h.1a44.1 44.1 0 0 1 .5-2.8l.2-.4.1-.5a10.4 10.4 0 0 1 1.1-2.8l.3-.4.4-.5h.1l.2-.2.5-.2a19.2 19.2 0 0 0 2.1 0h.2l.5-.1h2a62 62 0 0 0 3 0l.2.1.6.3.3.9-.1.9-.2.6-.2.6a7.7 7.7 0 0 0-.3 1v.5l-.4 1.6-.2.5v.1l-.2.8-.2 1-.1.6-.1.6v.2a10.2 10.2 0 0 0-.3 1.5V123.2l-.1.5v1.6l.1 1.3v.5a33.8 33.8 0 0 0 1 3.5l.1.4.1.3.4.8.2.5.4.7.1.2a9 9 0 0 0 .7 1l.1.2.2.3.1.1.6.8.1.3-.1.1h.2l.5.6.6.7.2.2a15.7 15.7 0 0 1 1.4 1.5l.4.4a2.8 2.8 0 0 0 .8.3l.2.1h.1a12.4 12.4 0 0 0 1 .3l.7.3c.4 0 .7.2 1.1.3h.3a11.7 11.7 0 0 0 3 .4h2.1a23.5 23.5 0 0 0 3 0l.3-.1h.6a13 13 0 0 0 3.2-1l.4-.1 1-.4h.1l.6-.3.3-.2.1.1v-.1l.1-.1.6-.4.1-.1a5 5 0 0 1 1-.5 18.7 18.7 0 0 0 1.1-.7h.2c0-.1 0-.2.2-.3.2 0 .3-.2.5-.3a8 8 0 0 0 .7-.7l.4-.3v-.1l.3-.2.2-.3.4-.4.7-1.2.3-.6.5-.9.2-.4.3-.5a9 9 0 0 0 .3-1.2v-.2a9.4 9.4 0 0 0 .3-1.2v-.4a24.9 24.9 0 0 0 .2-2.2v-.3a15.9 15.9 0 0 0-.5-4.3l-.1-.3v-.4l-.1-.1-.2-.5v-.3c-.2-.2-.3-.5-.3-.7v-.1l-.2-.3v-.1a9 9 0 0 1-.3-.6l-.9-1.6-.1-.3-.4-.7-.1-.1a5.8 5.8 0 0 0-.6-1l-.2-.2v-.1l-.3-.4a25.8 25.8 0 0 1-1.2-1.8l-.5-.5-.6-.5-.4-.5-.6-.5-.3-.2a40.3 40.3 0 0 0-1.1-.8h-.1l-.2-.2a9 9 0 0 0-.8-.5l-.3-.2a8 8 0 0 0-1-.5l-.7-.3-.4-.2h-.5c-.2-.2-.4-.2-.6-.2h-.4a4 4 0 0 0-.4 0h-.2V111.5c0 .3-.2.5-.4.7a1 1 0 0 1-1 .3h-.2a.8.8 0 0 1-.3-.3 112.4 112.4 0 0 0-3.3-1.6l-.6-.3-.3-.2-.9-.6a34.2 34.2 0 0 0-1.3-.7h-.1l-.2-.2-.8-.4-1-.5-.7-.3-1.5-.9h-.2a64.6 64.6 0 0 1-1.9-1.2 9 9 0 0 0-.5-.3l-.9-.5-1.5-1-.2-.1a5 5 0 0 1-.5-.5l-.5-.6v-1l.2-.3.5-.5.1-.1a9.2 9.2 0 0 1 1.2-.7l.8-.6a66.7 66.7 0 0 0 1-.6l.2-.1.3-.2.2-.1.6-.4.2.1-.1-.2a24.8 24.8 0 0 1 2.3-1.4 22.9 22.9 0 0 1 1-.7h.2l.2-.2a46.2 46.2 0 0 0 2.5-1.5l.5-.4 1.3-.7.9-.5.8-.5 1-.5.7-.4a1 1 0 0 1 .9 0H128.7a1.2 1.2 0 0 1 1 .7c.2.4.3.9.3 1.3V97l.5.1h.6l.4.2a17.8 17.8 0 0 1 1.7.5l.5.2 1.6.5 1 .3a11.2 11.2 0 0 0 1.2.3h.1l.6.3c.2 0 .3 0 .5.2l1 .3 2.5 1.3.4.3h.1a16.3 16.3 0 0 0 1.1.7 27.6 27.6 0 0 1 3 2.6l.4.4.4.4a5.7 5.7 0 0 1 .5.7l.2.2.1.2.1.1.3.4.4.7a76.3 76.3 0 0 1 1 1.6v.2l.5.6a17.2 17.2 0 0 1 1.2 2.3l.2.4.3.7.2.5.3.8.1.3.3.8a39.5 39.5 0 0 1 .7 2.4l.2.6a20 20 0 0 1 .4 2.4 25.5 25.5 0 0 0 .2 1.7v1.3l-.1.5a7.7 7.7 0 0 1-.2 1.5l-.2.7v1l-.1.6-.2 1.3v.2a34.3 34.3 0 0 1-.5 2l-.3.6-.3.8a27.7 27.7 0 0 1-1.3 3l-.2.4-.5.8-.1.3-.8 1.3h-.1l-.4.6a18.6 18.6 0 0 1-1.5 2l-.6.5-.4.5-.6.5-.3.3-.2.2-.3.3-1 .9-.4.2-.4.3-.1.1-.6.4-.4.2-.8.5-1.6.9-.4.2c-.2 0-.2.1-.3.2-.2 0-.3 0-.4.2l-.4.1a24.5 24.5 0 0 0-1.8 1l-1.7.5h-.3l-.4.2-.5.2-.9.2h-.3a30.6 30.6 0 0 1-1.1.4h-.1a15.8 15.8 0 0 0-.9.2l-.5.1a22.2 22.2 0 0 1-2.8.6l-.3.1h-.1zm-6-1.2h.4l.5.2h.4a3.5 3.5 0 0 1 .5.2h.3a4.8 4.8 0 0 0 .5.2H124.3l.4.1h.4v.2-.2h1.2l.2.1H126.8a5 5 0 0 0 .4 0h.2l.3-.1h.1a11.5 11.5 0 0 0 3.8-.8h.1l.5-.2.7-.1.2-.1a50.7 50.7 0 0 0 1.4-.4l.5-.1.2-.1a14 14 0 0 0 2.7-1l.7-.4.4-.2a10.4 10.4 0 0 0 .7-.3l.5-.3a16.5 16.5 0 0 0 2.3-1.3l.4-.3.5-.3.2-.1.4-.3.3-.3c.4-.2.7-.5 1-.9.2 0 .3-.1.3-.2l.3-.2.3-.3a7 7 0 0 0 1-1l.6-.6 1-1.2a27.2 27.2 0 0 0 .8-1.2v-.1c.4-.4.6-.8.8-1.3l.2-.3.4-.7.3-.5.6-1.2.7-1.7c0-.3.2-.5.3-.8l.2-.7.1-.2a8.8 8.8 0 0 0 .4-1.6v-.2l.2-1.2v-.7l.2-1 .1-.7a4.7 4.7 0 0 0 .2-1.4V124.7l.2-.3a29 29 0 0 0-.2-2.9 16 16 0 0 0-.5-2.3l-.1-.6a28.7 28.7 0 0 0-1-3.2l-.1-.2-.3-.8-.3-.6-.3-.7-.2-.4a23.6 23.6 0 0 0-1.2-2.2l-.3-.6-.2-.2c0-.2-.2-.3-.3-.5a32.5 32.5 0 0 0-1.3-2.2l-.2-.2-.2-.3a7 7 0 0 0-.3-.3l-.2-.3-.4-.4-.4-.4a14.2 14.2 0 0 0-2.9-2.5 8.8 8.8 0 0 0-1-.7h-.1v-.3.2l-.5-.2a25.1 25.1 0 0 0-3.4-1.7l-.5-.2-.5-.2h-.2a18.9 18.9 0 0 0-1.1-.3l-1-.4-1.7-.5-.4-.1a21 21 0 0 1-1.7-.5 5 5 0 0 0-.8-.2h-.2l-.7-.2h-.1V94v-1.3l-.3-1.2a.8.8 0 0 0-.7-.5h-.4a.5.5 0 0 0-.5 0l-.7.4-1 .6-.9.4-.9.5-1.2.8c-.2 0-.4.2-.5.3a20 20 0 0 1-2 1.2 29.4 29.4 0 0 1-.7.4l-.2.2a11.4 11.4 0 0 1-1 .5v.1l-1.7 1-.6.4h-.2.1l-.7.5h-.1l-.3.3-.3.1a15.6 15.6 0 0 0-1 .7l-.8.5-.6.4-.5.3-.1.1c-.2 0-.3.2-.4.4l-.1.2v.7c0 .2.1.4.3.5l.5.4.2.2 1.5 1 .8.4.5.3.3.2 1.6 1h.2l1.6.9.6.3a77.5 77.5 0 0 1 1.8 1H121.6l.7.4.6.4 1 .6.3.2a14.2 14.2 0 0 1 1.2.8 103.3 103.3 0 0 1 2.4 1h.1l.1.1.3.2h.2a.6.6 0 0 0 .6-.1l.2-.5a4 4 0 0 0 0-.9V109.6v-3.1h.2l.4-.2h.9l.7.2h.1v.2-.2a6.1 6.1 0 0 1 .8.3c.3 0 .5.2.7.3a13.4 13.4 0 0 0 1 .6l.3.1v.2-.2a6.3 6.3 0 0 1 .8.5l.2.2h.1l.3.2 1 .7.2.1.6.6.4.4.7.6.4.5a20.2 20.2 0 0 1 1.2 1.8c.2.2.3.3.3.5h.1a12.4 12.4 0 0 1 .4.7 6 6 0 0 1 .5.7l.4.7.1.2.9 1.7.2.6.2.4.4.8v.3l.2.5v.2l.1.3.1.4a27.3 27.3 0 0 1 .6 4.4v.2a14 14 0 0 1-.2 2.3v.4l-.1.7-.2.6v.2l-.1.3-.3 1-.3.5-.2.4a23.3 23.3 0 0 1-1.9 3v.1h-.2.1c0 .2-.1.2-.2.3l-.2.2-.1.1-.4.4v.1h-.1l-.2.2-.4.4-.6.4-.2.1h-.1l-.3.2-.9.5-.5.3-.4.3-.1-.2.1.2a7.4 7.4 0 0 1-.7.5h-.2v.1a8.4 8.4 0 0 1-1 .5h-.1l-1 .4-.4.2a39.7 39.7 0 0 1-3.4 1h-1.7l-2.1.1h-2.1l-2-.2h-.1l-1-.2h-.3l-1.2-.4-.6-.2h-.1l-.6-.2a7.9 7.9 0 0 0-1.2-.4 3 3 0 0 1-.4-.3c-.2 0-.3-.2-.4-.3l-.2-.2a13.7 13.7 0 0 0-1.5-1.6l-.5-.7-.5-.5-.2-.2v-.2a21 21 0 0 1-.7-.9v-.1l-.3-.3-.1-.2-.4-.6-.3-.4v-.2l-.5-.8-.2-.5a55.2 55.2 0 0 1-.5-1l-.2-.5-.1-.3-.4-1.2a35 35 0 0 1-.4-2v-.6l-.1-1.3v-.5-1.2a36.3 36.3 0 0 0 0-.9v-.3-.4a14.2 14.2 0 0 0 .1-1l.2-.8.1-.6.1-.5.2-1.1.3-.8.2-.7a25.4 25.4 0 0 0 .3-1.8v-.2l.1-.4.2-.6.2-.7.2-.6.1-.7c0-.3 0-.5-.2-.6a.7.7 0 0 0-.5-.3h-.1H110l-.2-.1h-4.5l-.2.1h-.6a22 22 0 0 1-1.9.2l-.1.1-.4.5a4 4 0 0 0-.5.8 15.7 15.7 0 0 0-.9 2.3l-.1.5-.1.3h-.2l.2.1-.2.5a15.5 15.5 0 0 0-.4 2.2 62.3 62.3 0 0 1-.1 1l-.4 4.1v1a39 39 0 0 0 0 2.5v1.1a.5.5 0 0 0 .2.3l.1.5.1.7a13.4 13.4 0 0 0 .3 1.3l.1.3a11 11 0 0 1 .2.7 18.6 18.6 0 0 1 .5 1.6v.2l.2.6.1.3.2.5v.2a14.9 14.9 0 0 0 1.1 2.2l.1.2.3.5a17.6 17.6 0 0 0 1 1.5l.1.3.1.1.6.8.4.5.4.4.2.3-.1.2.1-.2.2.3.1.2a6.3 6.3 0 0 0 .7.8l.2.2a3.6 3.6 0 0 0 .5.5l.2.2a23 23 0 0 1 .9.9l.7.6.2.1-.1.2.1-.1.4.3.2.2a20.3 20.3 0 0 0 1.4 1l.5.2.2.1.3.2.5.3.3.1a20.9 20.9 0 0 0 2.6 1.3h.1l.7.3 1 .3a4.6 4.6 0 0 0 .7.3v.2l.1-.2 1 .2h.2l.3.1h.6v.1h.6v.3-.2zm5.6-.2h-.4a2 2 0 0 0-.4 0h-1.2l-.2-.1h-.4l-.2-.1-.4-.1v-.1H122.8l-.3-.2h-.5l-.5-.1h-.1-.2l-.3-.1-.8-.1h-.3l-.1-.1h-.4l-.6-.2h-.1l-.5-.2-.6-.2-.3-.1-.5-.2-1-.4-.3-.1-.3-.2a12.6 12.6 0 0 1-1.8-.9l-.5-.2-.2-.2a14.6 14.6 0 0 0-.6-.3l-1.2-.8-.5-.4-.3-.2-.8-.7a26.2 26.2 0 0 1-.7-.7h-.1a13.3 13.3 0 0 0-.8-.9c-.2 0-.3-.2-.4-.3l-.1-.2-.2-.2-.3-.4-.2-.3.2-.1h-.2l-.1-.1a7 7 0 0 0-.5-.6l-.1-.1-.4-.4-.1-.2-.1-.1a6.5 6.5 0 0 1-.6-.8v-.2l-.4-.6-.3-.4v-.1l-.3-.5-.4-.7a15.3 15.3 0 0 1-1-2.4l-.2-.4a24 24 0 0 1-.7-2.4v-.2l-.1-.5-.3-.8v-.1l-.2-.7v-.1a83.9 83.9 0 0 0-.2-1.6v-.5a11.3 11.3 0 0 0-.1-1v-2-2l.1-.8v-.2l.2-1 .1-.8.2-1.2a17.1 17.1 0 0 1 .5-2.3l.1-.5.1-.2.4-1.2.2-.5.1-.2.4-.7.2-.3h.2a18.9 18.9 0 0 0 2-.2h2.5a63 63 0 0 0 2.2-.1H110.3l.2.1v.2l-.3 1v.1a11.3 11.3 0 0 0-.5 2l-.4 1.6v.3l-.5 1.5-.3 1.9-.2 1v.3l-.1.6-.1 1.2V124a6 6 0 0 0 0 1v.8l.2 1.2V127.8l.1.2a27.6 27.6 0 0 0 .8 2.9v.2l.2.3v.2l.4.8.2.4a15 15 0 0 0 .7 1.3v.1c.3.5.6 1 1 1.3 0 .2 0 .3.2.4l.1.2.5.7.2.3.7.8.3.3.4.5.3.3.3.4.7.9.3.2a3.2 3.2 0 0 0 1.3.7l.6.2.3.1.7.2.5.2 1.3.4h.1l.7.1.4.1.4.1h.1a26.8 26.8 0 0 0 2.9.2h4.2l.4-.1h.4l.6-.2h.3l.6-.1 1.3-.4 1-.4h.3a26.8 26.8 0 0 0 2.4-1.2l.2-.1.5-.3.9-.6.8-.4.4-.3.5-.3a15.7 15.7 0 0 0 1.2-1h.1l.1-.1.1-.1a6.4 6.4 0 0 1 .7-.7l.2-.2.2-.2c.4-.4.8-1 1-1.6l.2-.2.3-.6.4-.7v-.1l.2-.3v-.1l.2-.3.4-1 .2-.6.1-.5.3-1.4a25.6 25.6 0 0 0 .2-4l-.3-1.8-.3-1.8v-.1l-.2-.6v-.1l-.2-.6v-.2l-.4-.9-.3-.6-.2-.4a16 16 0 0 0-1.2-2.3l-.3-.6-.1-.2a6.5 6.5 0 0 0-.6-.9l-.1-.2-.2-.2-.3-.4-.2-.4a17 17 0 0 0-.9-1.3 5.3 5.3 0 0 0-1.1-1.2l-.6-.5a8.3 8.3 0 0 0-.8-.7l-.2-.1-1-.7-1.1-.8-.4-.2-.3-.2c-.2 0-.3-.2-.5-.3a21 21 0 0 1-1.2-.6 8.6 8.6 0 0 0-1-.3l-.8-.1-1-.1-1 .2h-.3a.5.5 0 0 0-.3.4l-.1.3v5.2l-.3-.4-.1-.1-.3-.2a49.3 49.3 0 0 0-2.4-1.3l-.5-.3-.3-.2-.8-.5a23.4 23.4 0 0 0-1.4-.8l-.3-.2a20.3 20.3 0 0 0-2.4-1.2l-1.8-1-1.6-1-.4-.1-.4-.3-.7-.4-.2-.1-1-.6-.7-.5-.2-.2-.3-.2.2-.2 1.7-1 .8-.6 1-.5v-.1l.6-.3.5-.3.2-.2a38.2 38.2 0 0 1 2.3-1.5l.5-.3 1-.6.2-.1.6-.4.3-.1a11.8 11.8 0 0 0 .8-.6 22.7 22.7 0 0 1 2.1-1.2l.3-.2a62.2 62.2 0 0 0 2.2-1.2l.4-.2h.7v5.3a.5.5 0 0 0 .4.6l1 .3h.5a16.6 16.6 0 0 1 2 .6h.2l.4.2.6.2c.3 0 .5.2.8.3h.2a31.5 31.5 0 0 0 1.7.5l.3.1.6.2h.2l.4.2.3.1.4.2h.2l.4.2 2.1 1.1.2.2a23 23 0 0 1 2.1 1.3v.2-.2l.2.2 1.6 1.4.5.5.5.5.5.6.4.5.4.6.1.2.3.5a12 12 0 0 1 .5.8l.7 1.1 1 1.7.8 1.7v.2l.3.5a38.1 38.1 0 0 1 .8 2.2l.1.5.1.3.3 1v.1l.2.6a13.8 13.8 0 0 1 .5 2.9V124.7l-.1.3V125.6l-.2.5v.2l-.2.8v.2a19.4 19.4 0 0 0-.2 2.3 10.2 10.2 0 0 1-.6 2.3l-.2.4-.4 1v.2l-.4.9-.1.4a12.6 12.6 0 0 1-.6 1.2l-.2.3-.3.5-.5 1-.9 1.2v.2c-.2.1-.3.2-.3.4l-.2.2a14.8 14.8 0 0 1-1 1.2l-.2.2a14.9 14.9 0 0 0-1 1l-.5.5-.2.3-.3.2-1 .8-.2.2-.5.3a12.5 12.5 0 0 1-1 .7l-.2.2a17.3 17.3 0 0 1-3 1.6l-.5.2-.3.2-.7.3-1 .5-1.4.5-.4.1-.4.1a25 25 0 0 1-1.4.4l-.4.1-.6.2h-.4l-.5.2-.6.1a16.7 16.7 0 0 1-1.4.4h-.4l-1 .1h-.4c-.1 0-.3 0-.4.2zm-1-.5H126.2l.3.1.5-.2h.5a15 15 0 0 0 1.2-.1 19 19 0 0 0 2-.5l.5-.1a15.4 15.4 0 0 0 1-.3h.4a56.4 56.4 0 0 0 1.3-.4h.1l.4-.2h.4l1.3-.5 1-.5.8-.4.3-.1.5-.3.8-.4 1.5-.8.6-.4h.2a11 11 0 0 0 1.4-1v-.1c.2 0 .3-.1.3-.2l.9-.7h.2-.2l.1-.1.2-.2.3-.3a14 14 0 0 0 1.4-1.5l.2-.1a5.7 5.7 0 0 0 1-1.2l.1-.2.3-.5.1-.1.8-1.2.5-1 .4-.5a9.5 9.5 0 0 1 .4-.7l.3-.7.2-.5.3-.9.5-1.2v-.3h.3-.2l.1-.4a17 17 0 0 0 .5-1.9v-.2-.3l.1-.5.1-1.3v-.1l.2-1v-.1l.2-.5v-.5-.3-.5l.2-.4a13.5 13.5 0 0 0-.3-2.6c0-.6-.2-1.1-.3-1.6l-.2-.6-.2-1-.1-.4-.2-.5a12.8 12.8 0 0 0-.7-2v-.1l-.3-.5v-.2a46 46 0 0 0-.9-1.7c-.2-.6-.6-1.1-1-1.6v-.1l-.6-1a119.2 119.2 0 0 0-.8-1.4l-.1-.2-.3-.5-.5-.6-.5-.5-.4-.5-.5-.5-1.6-1.4-.2-.2-.8-.6-1.2-.7-.2-.1v-.2.2l-2.2-1.1-.3-.2h-.3l-.3-.2-.3-.1-.4-.2h-.2l-.6-.2-.3-.1-.4-.1-1.3-.4h-.2l-.8-.3-.6-.2-.4-.1-.3-.1a12.8 12.8 0 0 0-1.9-.5h-.1l-.3-.1c-.4 0-.7-.2-1-.3v-.2l-.1.2a1 1 0 0 1-.6-1.1v-2.5-1.3-1h-.3l-.3.2-1.5.8-.7.4-.3.1-1 .6-1 .6a18.3 18.3 0 0 1-1 .6l-.2.2c-.2 0-.4.2-.5.3l-.3.2-1 .6-.4.3a216.9 216.9 0 0 0-2.4 1.4l-.2.2a14.5 14.5 0 0 1-1 .6h-.1l-1 .7-.7.4-1.5 1a11.8 11.8 0 0 0 1.7 1.1l.2.1.7.4a14.2 14.2 0 0 1 .8.5 92.9 92.9 0 0 0 5.8 3.1l.3.2.6.3.8.5v.2-.1l.8.5.3.1.6.3.7.5 1.6.9h.1V109v-2.7l.1-.5a.9.9 0 0 1 .7-.6h.2c.3-.2.7-.2 1-.3h1.2a9.8 9.8 0 0 1 2.5.9l.6.3.5.3.3.2.4.2 1.2.7 1 .8v.3l.1-.2.3.2.6.5a16.3 16.3 0 0 0 1.1 1.1l.3.3.3.3v.1l1 1.4.2.3.3.4.2.5.2.2a4.4 4.4 0 0 1 .4.6l.1.2.4.6.2.4a16.5 16.5 0 0 1 1.2 2.3l.2.6.4 1v.2l.3.6v.2l.1.5v.2a27.7 27.7 0 0 1 .7 3.7 22.7 22.7 0 0 1-.2 3.9 11.7 11.7 0 0 1-.4 2 31.4 31.4 0 0 1-.6 1.7l-.2.3v.1l-.2.3v.1l-.5.7-.2.6-.2.3a7.5 7.5 0 0 1-1.4 2l-.2.2-.6.5-.2.1-.1.2a7 7 0 0 1-.9.7l-.4.3-.4.3c-.2 0-.4.2-.5.3l-.8.4-.8.5-.6.4-.2.1-.4.2-.9.5-1.2.4-.3.1-1 .4-1.3.4-.6.1h-.3l-.6.1h-.5l-.4.1h-.4l-.6.1H125a17 17 0 0 1-2.9-.2h-.1a9.2 9.2 0 0 1-.8-.1h-.1l-.6-.2h-.2l-1.3-.4-.5-.1-.8-.3h-.2a9.7 9.7 0 0 1-1.5-.7l-.4-.4a.7.7 0 0 1-.4-.2l-.8-1-.3-.2-.3-.4-.4-.4.1-.2-.1.1a16 16 0 0 1-1-1.2l-.2-.3-.5-.6-.1-.2-.3-.4-.9-1.3v-.2l-.4-.7-.3-.6-.2-.4-.4-.9v-.2l-.2-.3v-.1l-.2-.3c0-.4-.2-.7-.3-1l-.2-.9-.1-.8v-.3a11.8 11.8 0 0 1-.2-.7v-.1l-.1-1.3v-.2V125a19 19 0 0 1-.1-1v-.2-.4l.1-1.2v-.6l.1-.4.2-1 .4-1.9c0-.5.2-1 .4-1.5v-.3a22.5 22.5 0 0 0 .4-1.9l.5-1.7v-.2l.3-.7h-3.2a12.3 12.3 0 0 0-1.5.1 17 17 0 0 0-2 .1l-.1.2v.1l-.4.5-.1.2-.2.5-.4 1.2v.2l-.2.4v.1a20.4 20.4 0 0 0-.5 2.2v.1l-.2 1.1-.1.9-.1 1v.2l-.1.7v.5l-.1 1.5v.5a33 33 0 0 0 .3 4.6l.2.7v.2a14 14 0 0 0 .4 1.2l.1.6.2.4.4 1.6.2.4.3 1a15 15 0 0 0 1 2l.3.5.3.5-.1.2.2-.1.3.5v.1l.4.5.2.3.1.1v.1l.1.1.4.4v.1l.6.6.2.3.1.2.3.4.2.2.2.2.3.4a9.3 9.3 0 0 0 .8.7l.1.2a7 7 0 0 0 .7.6l.8.7a6.8 6.8 0 0 0 .8.6 11 11 0 0 0 1.7 1.1l.2.1.5.3 1.2.6.6.3.3.1.3.2 1 .3.4.2.4.1a13.6 13.6 0 0 1 1 .4l.7.2h.7l.9.2h.5l.6.2h.4l.4.1.4.1h.2l.3.2h.4a2.2 2.2 0 0 1 .4.1H125.6zM5.9 40.2a98.8 98.8 0 0 1 .1 5V50a19.7 19.7 0 0 0 .1 2.4v7.1l.1 4.8.2 4.7v1.3l.1 1.2.1 2.4V76a66.5 66.5 0 0 1 .2 4.8v4.8L7 88v2.3l.1 2.5V110.6a81.9 81.9 0 0 0 0 4.2.7.7 0 0 0 1.2-.5v-2.5l.1-2.3.1-2.4v-2.5-9.5-4.9V88l-.1-2.4-.1-4.8L8 76v-1-1.3l-.2-2.3v-1.2-1.3l-.2-2.4v-2.3l-.1-2.5V57v-4.7L7.4 51V47.5 44a79.9 79.9 0 0 0-.4-4.3.7.7 0 0 0-1.2.5z"/><path fill="#1B1B20" d="M7.5 115.2a1 1 0 0 1-1-1l.2-3.6V108.8a83.8 83.8 0 0 1 .2-3.7v-8-4.3l-.1-2.4v-.8a66.7 66.7 0 0 1 0-2.7l-.1-1.2v-2.6l-.1-2.2a254.2 254.2 0 0 0-.1-5.2V75v-1.1l-.2-2.4v-.4a18.4 18.4 0 0 1 0-2L6 66.2v-2l-.1-4v-1.5-4a75.2 75.2 0 0 0-.2-4.8V49v-3.6a69.7 69.7 0 0 0 0-5.4l.1-.3a1 1 0 0 1 1.3 0c.2.1.3.4.3.6l.1 3.8V51.1l.1.6v10a65.8 65.8 0 0 0 .2 4.5v.3L8 69v1.3l.1.9v.3l.1 2.3v.2a90.7 90.7 0 0 0 0 2c.2 1.7.2 3.3.2 4.9v2.7a110.4 110.4 0 0 1 .1 4.3v1.7a86.9 86.9 0 0 1 .2 5.6v12l-.2 2.4v2.3l-.1 2.5a1 1 0 0 1-1 .9zM6 40.2a101.2 101.2 0 0 1 .1 8.7V50a19.3 19.3 0 0 0 .1 2.4V60.3a111.1 111.1 0 0 0 .2 6l.1 2.7v1.3l.1.8v.4l.1 2.4v1.7a26 26 0 0 1 .2 2.8v4.9l.1 2.4V87a47.3 47.3 0 0 0 0 2.7v.7l.1 2.5V110.6a82.1 82.1 0 0 0 0 4 .5.5 0 0 0 .8-.3v-2.5-1l.2-1.3a115.2 115.2 0 0 1 0-4.3v-2.9-7.2-4.9-.7-1.7L8 85.6v-2L8 80.7 7.9 76v-.4-.7-1.2l-.2-2.3v-.3-1V69l-.1-2.4v-.3l-.2-2v-3-4.7-4.2-.6a27.3 27.3 0 0 1-.1-1.8V47v-3a80.1 80.1 0 0 0-.4-4.2.5.5 0 0 0-.8.1v.2z"/><path fill="#1B1B20" d="M7 114v.2l-.2.3v1.1l-.2 1v1.1l-.1 1v2.9l.2 1.1.5 1.2.4.4c0 .2.2.3.3.4l.5.4.4.2a7.7 7.7 0 0 0 2 .8l1 .3 2.2.2h2.2a34.7 34.7 0 0 1 4.3.4l2.2.2H53a.7.7 0 0 0 0-1.3H26.2c-1.5 0-3 0-4.5-.2h-1l-1.1-.1-2.2-.2-1.1-.1H15a23.4 23.4 0 0 1-3.6-.5l-1.5-.5-.9-.5-.5-.5-.2-.4a5.5 5.5 0 0 1-.4-1.9v-.9-1.7-.9l.1-1 .1-.9a44.8 44.8 0 0 1 .1-1.4L8 114a.7.7 0 0 0-1 0z"/><path fill="#1B1B20" d="M52.9 127.5H27.2l-4.5-.1h-1.2a36.3 36.3 0 0 0-3.2-.3 37.7 37.7 0 0 0-4.3-.3c-.7 0-1.5 0-2.2-.2h-.2l-.8-.3a12 12 0 0 1-2-.8A5 5 0 0 1 7 124l-.5-1.2-.2-1.2v-.1-.9-2-.9-.6l.1-.4v-.5a18.2 18.2 0 0 1 .4-2.1l.1-.2a1 1 0 0 1 1.3 0 .9.9 0 0 1 .2.6v1.1l-.1.6a12.6 12.6 0 0 1-.1.8v.5l-.1.9v1.9a12 12 0 0 0 0 1.4l.3 1 .3.4.4.5 1 .6a11.3 11.3 0 0 0 2.8.7l2.1.1h1.2l1.2.2h.8l1.4.2h1l.8.1h.3l4.4.1H53a.9.9 0 0 1 .6 1.6 1 1 0 0 1-.6.3zM7.2 114l-.1.2v.2a40.4 40.4 0 0 0-.2 1.7v.5l-.1.5v.6a19 19 0 0 0-.1 2.8v.9l.2 1.2.5 1c0 .2.2.4.3.5a5.6 5.6 0 0 0 .8.7 4.7 4.7 0 0 0 1.4.7l1 .3.8.2h.2a12.5 12.5 0 0 0 3.1.4 20.4 20.4 0 0 1 3.4.2l2.1.1 1 .1h1.2c1.5.2 3 .2 4.5.2H53a.5.5 0 0 0 .5-.5.5.5 0 0 0-.5-.5H26.2c-1.5 0-3 0-4.5-.2h-1.3l-.8-.1-1.4-.1-.8-.1a28.6 28.6 0 0 0-2.2-.1H15a23.7 23.7 0 0 1-3.7-.5l-1.4-.5a6 6 0 0 1-1-.5l-.6-.6-.2-.4a5.6 5.6 0 0 1-.4-2V120.2v-1.7-.9l.1-.5v-.5-.4a11.2 11.2 0 0 1 .3-1.6l-.2-.3a.5.5 0 0 0-.7 0zM88 124.8H75.8a.7.7 0 0 0 0 1.5H89.2a20.5 20.5 0 0 1-.1-1.5H88z"/><path fill="#1B1B20" d="M75.7 126.5c-.2 0-.4 0-.6-.2a.9.9 0 0 1 .6-1.6h13.5l.1 1 .1.5v.2H75.9v.1zm4.6-1.5H76l-.3.1a.5.5 0 0 0-.5.5.5.5 0 0 0 .3.5h13.3V125h-8.6zM113.8 37.5a.7.7 0 0 0-.2.5v.7l.1 1 .1 1.3v1.3l.1 1.3.1 1.4v1.2l.1 1.3v6.7l.2 2.7v2.7a2487 2487 0 0 0 0 9.4l.1 1.3.1 5.4v11.6l.6-.3.7-.1h.2V79v-2.7c-.2-1.8-.2-3.6-.2-5.4v-1.4-1.3l-.1-2.6v-5.4-2.7a23.7 23.7 0 0 0-.1-2.8v-5.3V48 47l-.1-1.3a31 31 0 0 0-.2-2.7v-1.2a84.2 84.2 0 0 1-.3-3.7.7.7 0 0 0-.4-.6.7.7 0 0 0-.8.1z"/><path fill="#1B1B20" d="M114.4 87.7v-9.6V77v-.8l-.1-.5v-4.2-1.2l-.1-.9V69a49 49 0 0 1-.1-4V58v-1a72.8 72.8 0 0 1-.2-7.2v-2.2-1.3-.6-.6l-.1-.7v-.7a43 43 0 0 1-.2-2.3V41v-1.5l-.1-.8v-.1l-.1-.6a.9.9 0 0 1 .3-.6 1 1 0 0 1 1.2 0c.2.1.3.3.3.5l.1 1.2c0 .8 0 1.7.2 2.5V43a32.6 32.6 0 0 0 .2 2.7v4.9a168 168 0 0 0 .2 7V68.4a81.5 81.5 0 0 0 .1 2.7v.3a92.2 92.2 0 0 0 .2 7.4V87h-.4a2 2 0 0 0-.6 0c-.2 0-.4.2-.5.3l-.3.3zm-.5-50l-.1.3v.6l.1.9v.2l.1 1.3v.3a27.3 27.3 0 0 1 .2 3V45.5a35.7 35.7 0 0 0 .1 1.9v2.2a290 290 0 0 0 .2 7.2v3a1747 1747 0 0 0 .1 10.4v1.2a84 84 0 0 0 .2 5.5V86.9l.3-.1.7-.1v-8-2.3c-.2-1.7-.2-3.4-.2-5.1V71v-1.4-1.3l-.1-2.4v-.2-6.3-1.8-1.4l-.1-1.4V48v-1l-.1-.7v-.6a32.6 32.6 0 0 0-.2-3.2v-.7a88 88 0 0 1-.4-4 .5.5 0 0 0-.8 0zM23.6 21.4l-2.2.1h-2.2l-2 .2H13c-.8 0-1.5.1-2.2.3a6.2 6.2 0 0 0-4.3 3.6l-.2.8-.1 1v.8a19.7 19.7 0 0 1-.5 2.8v1l-.1 1.2-.1 4v1.1a5.6 5.6 0 0 1 0 1.3l-.1.5-.1.6v1.1a.7.7 0 1 0 1.3-.7v-.3l.2-.9a6.8 6.8 0 0 0 .2-2v-1-4l.2-2.3.1-.8.2-1 .1-1.8.3-1 .5-1 1-.8a5.2 5.2 0 0 1 2.7-1l1-.1h5.1l1-.1h1.1l2.2-.1H31v-.4a5.3 5.3 0 0 1 0-1H23.6z"/><path fill="#1B1B20" d="M6.1 42.3a.9.9 0 0 1-.8-.4l-.2-.6V41a6.4 6.4 0 0 1 .2-1.2l.1-.2a4.2 4.2 0 0 0 0-1.7v-.6l.1-4.1v-.5a30.3 30.3 0 0 0 .2-1.7l.1-1.2.2-1a18.4 18.4 0 0 0 0-1l.1-.5a9.7 9.7 0 0 1 .3-1.7 5.4 5.4 0 0 1 1.7-2.3l.6-.5c.7-.5 1.4-.8 2.1-1 .7-.2 1.5-.3 2.3-.3h2a67.2 67.2 0 0 0 4.1-.1h1.2a38.5 38.5 0 0 0 3.2-.2H27.9l.3.1a11.2 11.2 0 0 0 2 0h.9V21.5a5 5 0 0 0 0 1.2v.2h-.7l-1.2.1h-1.4a27.5 27.5 0 0 0-3 0H18.6l-.3.1a56.1 56.1 0 0 1-4.2.1h-2l-1.8.6a4.8 4.8 0 0 0-1.7 1.3 5 5 0 0 0-.5.9 6 6 0 0 0-.3 1v.8l-.1.9v.1l-.2 1v.2a28.4 28.4 0 0 0-.4 6.8v1l.1 1v.1l-.1 1-.1.2a6.8 6.8 0 0 0-.2.9.9.9 0 0 1-.8 1.2zM13.5 22h-.4c-.8 0-1.5.1-2.2.3a6 6 0 0 0-3.1 2c-.6.6-1 1.4-1.2 2.3v.8h-.1v.6a11.4 11.4 0 0 1-.1 1l-.2 1a12 12 0 0 0-.2 1.8v1l-.1.5a51.7 51.7 0 0 0-.2 6.7v.2a5.9 5.9 0 0 0-.2 1.2l.2.4a.5.5 0 0 0 .3.2.5.5 0 0 0 .6-.7 3.3 3.3 0 0 1 .1-1.1v-.2l.2-1v-1.5-.5-4.1l.1-.9.1-1.3.1-.6v-.2l.2-1v-1l.1-.8.3-1 .6-1 1-1c.2-.2.5-.4.9-.5a8.8 8.8 0 0 1 2.9-.6h5.1l.4-.1h1.7l2.2-.1h.4a36.2 36.2 0 0 1 4 0h.8a19.4 19.4 0 0 0 2.6 0h.3v-.2-.8a29.2 29.2 0 0 1-2.6 0h-7.7a35 35 0 0 0-3.2.2H13.5zM103 21.1H86.7v1.4H103c.2 0 .3 0 .5-.2a.7.7 0 0 0 0-1 .7.7 0 0 0-.5-.2z"/><path fill="#1B1B20" d="M86.5 22.7v-.2-1V20.9H103a.9.9 0 0 1 .8.6 1 1 0 0 1-.2 1 1 1 0 0 1-.6.2H86.5zm.4-1.4v1H103l.3-.1.2-.3a.5.5 0 0 0-.5-.6v-.2.2H86.9zM73.5 21.3h-2.2l-1 .1H51.4l-2.1.2h-5.2V23H50l1.1-.1H70l1.2-.1 2.2-.1h.8v-.3a11.7 11.7 0 0 1 0-1.1h-.6z"/><path fill="#1B1B20" d="M49.4 23.2H44V22v-.7h5.5l1.5-.1h19.3l.8-.1h.3l2.2-.1h.9v.2a3.4 3.4 0 0 0-.1 1.1v.5h-1a47.6 47.6 0 0 0-3.4.1H51.2l-.4.1h-1.4zm-5-.4h4.9a13.6 13.6 0 0 0 1.5 0l.4-.1H70l1-.1 2.3-.1h.6V22v-.5H71l-.8.1H51l-1.6.1h-5v1.1zM106.8 21h-1l-1 .1h-2a.7.7 0 1 0 0 1.5h2.2l.7-.1h1l1-.1h1l1 .1h.9l1.1.3h.2a5.1 5.1 0 0 1 1 .7 3 3 0 0 1 .4.6l.1.4.1.4v.6l.1.8v.9a.7.7 0 0 0 .6.8.7.7 0 0 0 .8-.5V27v-.4-.9l-.1-.8-.1-.5-.1-.5c0-.2-.2-.3-.3-.5l-.2-.3-.2-.2-.7-.7-.7-.4-.2-.1h-.1l-.2-.1a8.7 8.7 0 0 0-1.4-.3h.2-.6l-.5-.1h-1l-1-.1h-1zm3.6 1.5zm.3 0h.1z"/><path fill="#1B1B20" d="M114.4 28.2h-.3a1 1 0 0 1-.6-1v-1l-.2-.7v-.6-.4a5.6 5.6 0 0 1-.2-.4l-.1-.1a2.8 2.8 0 0 0-1.2-1h-.1a6 6 0 0 0-1-.2l-.1-.3v.2a7 7 0 0 0-.8 0h-.1a20.6 20.6 0 0 1-2-.1 17.5 17.5 0 0 0-1.6 0l-.4.1h-2.9c-.2 0-.4 0-.6-.2a.9.9 0 0 1 .1-1.4l.5-.1h2.2l.8-.1h1.2l.8-.1h.5a9.7 9.7 0 0 0 1.5.1h.2a4.3 4.3 0 0 1 .8 0h.1a7.6 7.6 0 0 1 1.3.4H112.5l.2.2a5.5 5.5 0 0 1 1.5 1.1l.2.2v.1l.2.3.3.6v.2l.1.2a4 4 0 0 1 .1 1v.5l.2.8v1.1a1 1 0 0 1-1 .6zm-3.6-5.8l1 .2h.2a5.3 5.3 0 0 1 1 .8 3.2 3.2 0 0 1 .5.6v.4a2.8 2.8 0 0 1 .2 1l.1.7v1.1a.5.5 0 0 0 .4.6.5.5 0 0 0 .7-.3V27v-.5l-.1-.7v-.1a7.2 7.2 0 0 1 0-.8l-.2-.6v-.2l-.1-.2-.2-.5-.2-.2V23l-.2-.2c-.2-.3-.4-.5-.7-.6l-.7-.4-.1-.1h-.1l-.2-.1-.5-.2-1-.1h-.8a24.2 24.2 0 0 1-1.5-.2h-2.5l-.8.1h-2.2a.5.5 0 0 0-.3 1h4.2l1-.1h1l1 .1h1.1z"/><path fill="#1B1B20" d="M113.6 27v4.2a38.1 38.1 0 0 1-.1 2.2v2a189.7 189.7 0 0 0 .3 3 .7.7 0 0 0 1.2-.5v-2.1-1.1l-.1-1v-1.1-1a47.4 47.4 0 0 0 .1-3.4V27a.7.7 0 0 0-1.4 0z"/><path fill="#1B1B20" d="M114.3 38.8a1 1 0 0 1-1-.9v-2.8-.6-.7a19.6 19.6 0 0 1 0-1.5v-.1a39.2 39.2 0 0 0 0-1.7v-.3-.9l.1-.2v-1-.4-.7a1 1 0 0 1 .5-.8.9.9 0 0 1 1.3.8v2.3a15.4 15.4 0 0 0 0 2.2 19.4 19.4 0 0 1-.1 1V38a.9.9 0 0 1-.2.7 1 1 0 0 1-.6.2zm-.5-11.8a9.4 9.4 0 0 0 0 1v3.2l-.1 1a9 9 0 0 0 0 1.6 16.6 16.6 0 0 1 0 1.3v.3a188.7 188.7 0 0 0 .2 2.8.5.5 0 0 0 .5.2l.2-.1a.5.5 0 0 0 .2-.4v-3.2-1l-.1-1.1V32v-.5a38 38 0 0 0 .1-2.1v-.1-1-.5a7.8 7.8 0 0 1 0-1l-.1-.1a.5.5 0 0 0-1 .3zM71.6 40.2h-1.8l-1.7.1h-1.6l-1.6.2H56.5c-1.1.2-2.3.2-3.4.2h-3.3a87 87 0 0 1-3.4.1H25.2a48.6 48.6 0 0 0-5 .3l-3.1.3-3.1.2H7.3a.7.7 0 1 0 0 1.4h6.3c1 0 2 0 3.1-.2l1.7-.1 1.6-.2 3.1-.2a39.6 39.6 0 0 1 4-.2h2.6l1.7.1h18l3.4-.1H56l1.6-.2H66l1.6-.1a44.2 44.2 0 0 0 3.5-.2h18.4l1.6.1.8.1h4l3.3.1h13.9a.7.7 0 1 0 0-1.5l-3.7.1h-13l-3.3-.1h-1.6l-1.7-.1h-1.6l-1.6-.1H71.6z"/><path fill="#1B1B20" d="M8.1 43.2h-.8a1 1 0 0 1-.8-1.3c0-.1 0-.2.2-.3.1-.2.4-.3.6-.2H14a33.7 33.7 0 0 0 5-.4h1.3l3.2-.4h3.3a44.6 44.6 0 0 1 4.7 0h14.9a86 86 0 0 0 4.6-.1h2.1l3.4-.1H63.2l1.7-.1a31.7 31.7 0 0 0 1.6-.1h.8A50.9 50.9 0 0 0 71 40h.8l1.4-.1h7.6a229.8 229.8 0 0 1 7.5.1H90l1.7.2h1.6a184.8 184.8 0 0 1 8.8.1h7.5a176.9 176.9 0 0 0 4 0c.2 0 .3 0 .4.2a.9.9 0 0 1-.7 1.5h-.6a164 164 0 0 1-5.8.1h-7.5a63.5 63.5 0 0 1-3.3 0L93 42H91a47.4 47.4 0 0 0-3.4-.2h-1.5l-5.3-.1h-8.2a15.8 15.8 0 0 0-1.5 0 58 58 0 0 0-3.5.2h-.4L66 42l-5.8.1h-4.2c-1 .2-2.1.2-3.1.2h-3.6l-3.4.1H28.1l-.3-.1a13.4 13.4 0 0 0-1.5 0 86.4 86.4 0 0 1-3.1.2c-.8 0-1.6 0-2.4.2h-1.6a63.2 63.2 0 0 1-2.5.3l-3 .1H8.2zm-.8-1.4H7a.5.5 0 0 0 .3 1h6.5a35 35 0 0 0 4.6-.3h.8l.7-.2h.8l2.4-.2a39 39 0 0 1 4.7-.2H29.7l.5.1h19.2l3.4-.1H56l.3-.1h4c1.9 0 3.8 0 5.8-.2h1.6a46.5 46.5 0 0 0 3.5-.2h16.6a67.6 67.6 0 0 0 3.4.1h.3l.5.1h.8a158.6 158.6 0 0 1 4.8 0l1.7.1h13.9a.5.5 0 0 0 .5-.6.5.5 0 0 0-.1-.3.4.4 0 0 0-.3-.2 182.1 182.1 0 0 1-6.3.2h-7.2l-2-.1h-1.3l-3.3-.1h-1.6a71.5 71.5 0 0 0-2.2-.1h-1.1l-1.6-.1H71a42.2 42.2 0 0 0-4.5.2 35.1 35.1 0 0 0-3.3.1h-6.7c-1.1.2-2.2.2-3.3.2H49.7a89 89 0 0 1-8.3.1H31a74.9 74.9 0 0 1-4.2 0h-.9a29.6 29.6 0 0 1-2.4 0l-3.2.3-1.2.1-2 .2-3.1.2H7.3zM75.4 124.8h-.9a10 10 0 0 0-1.5.1l-.4.1-1.1.2h-1l-1 .1-1 .1h-1l-1 .1-1.2.1h-1l-1 .1a24.7 24.7 0 0 0-3.3.3H56.7l-2-.2h-1l-.5-.1H51a.7.7 0 0 0 0 1.4h3.2l1 .2h6.2-.2l2.2-.2h1l1-.1a18.5 18.5 0 0 0 2-.2h2.1l.7-.1h.7l.9-.2h.5l.6-.1.6-.1h2.8a.7.7 0 0 0 .5-.3.7.7 0 0 0-.5-1.2h-.9z"/><path fill="#1B1B20" d="M59.5 127.6H59a40.4 40.4 0 0 1-4.8-.2h-1l-.6-.1h-.4a220 220 0 0 1-1.7-.2.9.9 0 0 1 0-1.4l.5-.2H53a5.6 5.6 0 0 1 .7 0h.2a16.7 16.7 0 0 0 1 .1h.4a28.2 28.2 0 0 0 3.7.2H60l1-.1a20.4 20.4 0 0 1 2.4-.2H64.7a21.3 21.3 0 0 1 1.7-.2h2l.5-.1a30.3 30.3 0 0 1 1 0l.7-.1h.2l.7-.1 1-.2h.3a5.9 5.9 0 0 1 .8-.1H76.3c.3 0 .5 0 .7.2a.9.9 0 0 1 0 1.3.9.9 0 0 1-.7.2h-2.8l-.2.1a6 6 0 0 1-.8.1l-.7.1-.6.1h-.4l-.6.1a31.5 31.5 0 0 0-1.3 0l-.4.1h-1l-1 .1-1.1.1h-.7l-.3.1h-1c-.7 0-1.4 0-2.1.2l-1.8.1zm-6.9-.7h1.2l.4.1h1.1c1.3.2 2.5.2 3.7.2h.5c.6 0 1.3 0 2-.2h1.9l1-.1H65.2a18.2 18.2 0 0 0 2.1-.3h2.1l.6-.1h1l.6-.2h.8a6.6 6.6 0 0 0 1-.2h3l.2-.2a.5.5 0 0 0 0-.5.5.5 0 0 0-.4-.4h-1.8a10 10 0 0 0-1.5.2h-.2-.2a30.4 30.4 0 0 0-1.8.3h-1.9l-.4.1h-1l-1 .1-1.2.1h-.6l-.3.1a9 9 0 0 1-.7 0h-.3a24.3 24.3 0 0 0-3.4.3H56.7l-1.6-.1h-.4l-.4-.1h-.7l-.4-.1H53v-.2.2H51 51l-.2.1a.5.5 0 0 0-.2.4.5.5 0 0 0 .5.5h1.6zM114.6 84.3V90a.7.7 0 0 0 1.4 0v-.6-.8-1.3-.7-.7-1.6a.7.7 0 0 0-1.4 0z"/><path fill="#1B1B20" d="M115.3 91a1 1 0 0 1-.9-1v-.6-.7-1.4-.4-.3-.7-1.6a.9.9 0 0 1 .6-.8.9.9 0 0 1 1.1.5l.1.3v3a42.8 42.8 0 0 0 0 3l-.2.4a1 1 0 0 1-.7.3zm0-7.2a.5.5 0 0 0-.5.5V87.3a46 46 0 0 0 .2 3.1l.3.1a.5.5 0 0 0 .4-.1.4.4 0 0 0 .1-.3 35.4 35.4 0 0 0 0-1.4v-1.4-.6-.8-1.6a.5.5 0 0 0-.5-.5zM89.2 124.8h-2.4c-.2 0-.4.2-.5.3a.7.7 0 0 0-.1.7.7.7 0 0 0 .6.5H88l1.2-.1h2.5a.7.7 0 0 0 0-1.4h-2.4z"/><path fill="#1B1B20" d="M86.8 126.5a1 1 0 0 1-.6-1.6l.6-.2H88l1.2-.1v.2-.2h2.4a1 1 0 0 1 .8.6.9.9 0 0 1-.2 1 .8.8 0 0 1-.6.2h-4.8zm3-1.5H86.8l-.3.2a.5.5 0 0 0 .1.8h5l.3-.1a.5.5 0 0 0-.3-.9h-1.8zM25.3 100.4a630.7 630.7 0 0 1 .2 4.4V112.9a.7.7 0 0 0 .3.5.7.7 0 0 0 .5.2.7.7 0 0 0 .5-.2l.2-.5v-.5-.6l-.1-1v-2.2-4.4l-.1-.9v-.9l-.1-2a.7.7 0 1 0-1.4 0z"/><path fill="#1B1B20" d="M26.3 113.8a1 1 0 0 1-1-1v-1.7-3-3.3a29.5 29.5 0 0 0-.2-3.1v-1.3a.9.9 0 0 1 .3-.7.9.9 0 0 1 1.5.7v2.5l.1.4V110.7l.1.8v1.4c0 .3 0 .5-.2.6a1 1 0 0 1-.6.3zm-.3-14a.5.5 0 0 0-.5.4v2.5l.2 2V113l.2.4a.5.5 0 0 0 .7 0l.2-.4v-1.4l-.1-.8V107.6v-3.4l-.1-.9v-.3-.6-2a.5.5 0 0 0-.6-.5z"/><path fill="#1B1B20" d="M41.6 98.4H29a13 13 0 0 0-2.7.2 1.5 1.5 0 0 0-.8.8c-.2.4-.3 1-.2 1.5a.7.7 0 1 0 1.4-.4v-.3-.2h.1l.4-.2h14.2a.7.7 0 1 0 .1-1.4z"/><path fill="#1B1B20" d="M26.1 101.6a1 1 0 0 1-.7-.4l-.1-.3c-.2-.5-.1-1.1.1-1.6a1.7 1.7 0 0 1 1-.9l.5-.1 1.8-.1h12.9a.9.9 0 1 1 0 1.8H28.2a8.3 8.3 0 0 0-1.2 0v.5a1 1 0 0 1-.9 1.1zm2.3-3a9 9 0 0 0-1.9.2 1.3 1.3 0 0 0-.7.7c-.2.4-.3.9-.2 1.3a.4.4 0 0 0 .3.3c0 .1.2.1.4 0a.5.5 0 0 0 .3-.5v-.1-.3-.3l.2-.2h.4l1-.1h13.3a.5.5 0 0 0 .1-1v-.2.2H28.4zM25.9 113.3a.7.7 0 0 0-.5.9v.3l.2.5a1.2 1.2 0 0 0 1 .5H37.4l4.2-.2a.7.7 0 0 0 0-1.4l-5 .1h-2.2a38.4 38.4 0 0 1-5 .2h-2.7v-.4a.7.7 0 0 0-.4-.4.7.7 0 0 0-.5-.1zm1 1z"/><path fill="#1B1B20" d="M27.6 115.8h-1a1.4 1.4 0 0 1-1.2-.8l-.2-.5v-.3-.7l.6-.4h.7a.9.9 0 0 1 .4.6v.2h9.8l5-.2a1 1 0 0 1 .9 1 1 1 0 0 1-1 .8l-4 .1H34c-1.3.2-2.6.2-3.8.2h-2.6zm-1.6-2.3l-.4.2v.4a28.1 28.1 0 0 1 .2.8 1 1 0 0 0 .8.4h10.9a234.9 234.9 0 0 0 4.5-.3.5.5 0 0 0 0-.7.5.5 0 0 0-.3-.2l-5 .1h-2.1a37 37 0 0 1-5 .2H26.6l-.1-.2v-.3l-.3-.4H26z"/><path fill="#1B1B20" d="M25.8 112.5a.7.7 0 0 0-.2.5v1.5a.7.7 0 1 0 1.4 0V113c0-.2 0-.4-.2-.5a.7.7 0 0 0-.8-.2l-.2.2z"/><path fill="#1B1B20" d="M26.3 115.4a1 1 0 0 1-.9-1v-.2-1.2a.9.9 0 0 1 .2-.6 1 1 0 0 1 1.3 0c.2.1.3.3.3.6v1.5a.9.9 0 0 1-.9.9zm0-3a.5.5 0 0 0-.5.4v1.7a.5.5 0 0 0 .2.3.5.5 0 0 0 .3.2.5.5 0 0 0 .5-.5v-.3-1.2c0-.1 0-.3-.2-.4a.5.5 0 0 0-.3-.1zM41.8 98.6a.7.7 0 0 0-.5.8c0 .2.2.4.3.5l.2.1.3.3.2.4.2.6v.9a24.6 24.6 0 0 1 .2 3v4.2l.1 2v2l-.2.2-.4.2a.7.7 0 0 0-.3.5.7.7 0 0 0 1 .7l.2-.1.4-.2.5-.7c.2-.3.3-.8.3-1.2a61.9 61.9 0 0 0-.1-3v-2-1.1c0-1.3 0-2.6-.2-3.8v-1l-.2-1a3 3 0 0 0-1.2-2l-.3-.3a.6.6 0 0 0-.3 0h-.2z"/><path fill="#1B1B20" d="M42.5 115.3a.9.9 0 0 1-.8-.8 1 1 0 0 1 .4-.9c.1 0 .2 0 .3-.2h.2v-.3-1.7-2.2-1.8l-.1-2.2a41.4 41.4 0 0 0-.2-3.5v-.4l-.2-.6s0-.2-.2-.3l-.2-.2-.2-.2a1 1 0 0 1-.4-.5.9.9 0 0 1 1.3-1l.3.2a3 3 0 0 1 1 1.1l.3 1v.8l.1.6.1.7.1 3.4v1.7a15.5 15.5 0 0 0 0 1.3v.5a23.3 23.3 0 0 1-.1 4.3 2 2 0 0 1-.6.7l-.4.3-.2.1a1 1 0 0 1-.5.1zm-.7-16.5a.5.5 0 0 0-.3.6l.2.3.2.2c.2 0 .3.1.4.3l.2.4.2.6v.5a17 17 0 0 0 .1 1.4 42.6 42.6 0 0 1 .1 4.2v2.1l.1 2v2.1h-.1l-.2.3-.4.2a.5.5 0 0 0-.2.3v.4a.5.5 0 0 0 .7.2 17.3 17.3 0 0 0 .5-.3l.5-.7a68.3 68.3 0 0 0 .2-4.1v-.5a21 21 0 0 1-.1-1.3v-1.7-3.4l-.1-.7-.1-.6v-.7a2.9 2.9 0 0 0-.8-1.5l-.4-.3-.3-.3h-.4zM79.3 99v2.3c.2.8.2 1.5.2 2.2v7.2l.1.4v.5a.7.7 0 0 0 .2.5.7.7 0 0 0 .5.2.7.7 0 0 0 .5-.2l.2-.5v-1.1-1-2.2l-.1-4.4v-1l-.1-.8v-2a.7.7 0 0 0-1.4 0z"/><path fill="#1B1B20" d="M80.3 112.5a1 1 0 0 1-.9-1v-1.8-2.9l-.1-3.3-.1-2.1V99a.9.9 0 0 1 .2-.7.9.9 0 0 1 1.6.6v.7a31 31 0 0 0 0 3.1l.1 3.6v3.8l.1 1v.4c0 .2 0 .5-.3.6-.1.2-.3.3-.6.3zm-.2-14a.5.5 0 0 0-.5.5v2.4l.1 2V109.8l.1 1.5v.4c0 .1 0 .3.2.4a.5.5 0 0 0 .7 0l.1-.4v-1.4-.8-3l-.1-3.5v-.9-.4l-.1-.5V99a.5.5 0 0 0-.5-.5z"/><path fill="#1B1B20" d="M95.6 97H83.1a13 13 0 0 0-2.6.3 1.5 1.5 0 0 0-.9.8c-.2.4-.2 1-.1 1.5a.7.7 0 1 0 1.3-.4v-.3l.1-.2v-.1h.4l1-.1h13.3a.7.7 0 1 0 0-1.5z"/><path fill="#1B1B20" d="M80.2 100.3a1 1 0 0 1-.7-.4l-.2-.3c-.1-.5 0-1.1.2-1.6a1.7 1.7 0 0 1 1-1h.5l1.8-.1h12.8a.9.9 0 0 1 0 1.7H82.2a8.1 8.1 0 0 0-1.1.2v.4a1 1 0 0 1-1 1zm2.3-3a9 9 0 0 0-2 .2 1.3 1.3 0 0 0-.7.6c-.2.5-.2 1-.1 1.4a.5.5 0 0 0 .2.3c.1 0 .3.1.4 0a.5.5 0 0 0 .4-.6v-.3-.3l.1-.2h.1a3.9 3.9 0 0 1 1.3-.1h13.4a.5.5 0 0 0 0-1V97v.2H82.5zM80 112a.7.7 0 0 0-.6.8v.4l.2.4a1.2 1.2 0 0 0 1 .6H89c.2-.1.5 0 .8 0l1.8-.1h4.1a.7.7 0 0 0 0-1.5l-5 .1h-2.1a38.4 38.4 0 0 1-5 .2h-2.7l-.1-.4a.7.7 0 0 0-.7-.5h-.2zm.9 1z"/><path fill="#1B1B20" d="M81.5 114.5h-.4l-.5-.1a1.4 1.4 0 0 1-1.1-.7l-.2-.5v-1c.1-.2.3-.3.6-.4h.6a.9.9 0 0 1 .5.6v.2H90.7l5-.2c.2 0 .5.1.6.3a1 1 0 0 1 .3.6 1 1 0 0 1-.9 1H88l-3.8.1h-2.7zm-1.4-2.3H80c-.2 0-.3 0-.3.2-.1.1-.1.3 0 .4v.3l.1.4a1 1 0 0 0 .8.5H89l.7-.1h2a217.7 217.7 0 0 0 4.4-.2.5.5 0 0 0 0-.8.5.5 0 0 0-.3 0h-5.4a25.6 25.6 0 0 0-3.9.1H81l-.2.1v-.2l-.1-.3c0-.2-.1-.3-.3-.4h-.2z"/><path fill="#1B1B20" d="M79.8 111.2a.7.7 0 0 0-.2.5v1.5a.7.7 0 1 0 1.5 0v-1.5c0-.2-.1-.4-.3-.5a.7.7 0 0 0-1 0z"/><path fill="#1B1B20" d="M80.4 114a1 1 0 0 1-1-.8v-.3-1.2a.9.9 0 0 1 1-1l.6.3.2.7v1.5a.9.9 0 0 1-.5.8h-.3zm0-2.8a.5.5 0 0 0-.6.5v1.5a.5.5 0 0 0 .6.5.5.5 0 0 0 .5-.5v-.3-1.2l-.2-.4-.4-.1zM95.8 97.3a.7.7 0 0 0-.5.8c0 .2.2.3.4.4l.2.2.2.3.3.4.1.6v.8a22.8 22.8 0 0 1 .2 3V107.2l.1 1v4l-.2.2-.4.2a.7.7 0 0 0 .7 1.2l.3-.1.3-.2.5-.7.3-1.2a61.9 61.9 0 0 0 0-3l-.1-1v-1-1.1l-.1-3.8-.1-1-.1-1A3.1 3.1 0 0 0 97 98l-.4-.4a58.3 58.3 0 0 0-.7-.4h-.2z"/><path fill="#1B1B20" d="M96.6 114a.9.9 0 0 1-.9-1.1.8.8 0 0 1 .5-.6s.2 0 .3-.2l.1-.1v-.2l.1-.7v-1-2.2l-.1-.8V106v-2a41.5 41.5 0 0 0-.2-3v-.5-.4l-.2-.6-.2-.3-.3-.2-.2-.2a.9.9 0 1 1 1-1.5l.3.2a3 3 0 0 1 1 1.1l.3 1v.8l.1.6v.7c.2 1.1.2 2.3.2 3.4v3a18.3 18.3 0 0 1 0 1.4 63 63 0 0 1-.2 3.4 2 2 0 0 1-.6.7l-.3.3-.3.1a1 1 0 0 1-.4.1zm-.7-16.5a.5.5 0 0 0-.4.6l.3.3.2.1.3.3.3.5.1.6v.5l.1.4a21.6 21.6 0 0 1 .1 3v3.3l.1.8v.2a28.4 28.4 0 0 1 .1 3v.7l-.1.4-.3.3-.4.2-.1.1v.2c-.1.1-.1.2 0 .4a.5.5 0 0 0 .7.1h.2l.2-.3c.3-.1.5-.3.6-.6l.2-1.1a65.5 65.5 0 0 0 0-3v-.5l-.1-.5V105l-.1-3.4v-.7l-.1-.6-.1-.7a2.9 2.9 0 0 0-1.1-1.9l-.4-.2H96zM25.3 52.7V55l.2 2.2V65.3a.7.7 0 0 0 .3.5.7.7 0 0 0 1 0l.2-.5v-.5-.6l-.1-1V61v-4.5l-.1-.8v-1l-.1-2a.7.7 0 1 0-1.4 0z"/><path fill="#1B1B20" d="M26.3 66.2a1 1 0 0 1-.9-.6v-.3-.4l-.1-1.5v-2.9-3.3A29.6 29.6 0 0 0 25 54v-1.4a.9.9 0 0 1 .3-.6c.1-.2.4-.3.6-.3a1 1 0 0 1 .9 1v2.9l.1.8v6.6l.1.8v1.4c0 .2 0 .5-.2.6a1 1 0 0 1-.6.3zm-.3-14a.5.5 0 0 0-.5.3V55.1l.2 2V65.4l.2.3a.5.5 0 0 0 .7 0l.2-.3v-1.4l-.1-.8V60v-3.4l-.1-.9v-.4-.5V52.7a.5.5 0 0 0-.6-.5z"/><path fill="#1B1B20" d="M41.6 50.7H29a13 13 0 0 0-2.7.3 1.5 1.5 0 0 0-.8.8c-.2.4-.3 1-.2 1.5a.7.7 0 0 0 1.4-.4v-.3-.2l.1-.1h.4l.9-.1h13.3a.7.7 0 0 0 .1-1.5z"/><path fill="#1B1B20" d="M26.1 54a1 1 0 0 1-.7-.4l-.1-.3c-.2-.5-.1-1.1.1-1.6a1.7 1.7 0 0 1 1-1h.5c.6-.1 1.2-.2 1.8-.1h12.9a.9.9 0 1 1 0 1.7H28.2l-1 .1H27v.5a1 1 0 0 1-.9 1zm2.3-3a9 9 0 0 0-1.9.2 1.3 1.3 0 0 0-.7.6c-.2.5-.3 1-.2 1.4a.5.5 0 0 0 .3.3.5.5 0 0 0 .4 0 .5.5 0 0 0 .3-.6v-.3-.3l.2-.2h.4l1-.1h13.3a.5.5 0 0 0 .1-1v-.3.2H28.4zM25.9 65.7a.7.7 0 0 0-.5.8v.3l.2.5a1.2 1.2 0 0 0 1 .6h8.3l.8-.1h6a.7.7 0 0 0 0-1.5l-5 .1h-2.2a38.4 38.4 0 0 1-5 .2h-2.7v-.4a.7.7 0 0 0-.4-.4.7.7 0 0 0-.5-.1zm1 1z"/><path fill="#1B1B20" d="M27.6 68.1h-1a1.4 1.4 0 0 1-1.4-1.2v-.3-.7a1 1 0 0 1 1.6 0l.1.2v.2h7.6l1.8-.1h.4l5-.1c.2 0 .4 0 .6.3a.9.9 0 0 1-.6 1.5h-6.1l-.7.1H34l-3.8.1h-2.6zM26 65.8l-.4.3v.4a28.1 28.1 0 0 1 .2.7 1 1 0 0 0 .8.5H35l.7-.1H41.7a.5.5 0 0 0 .3-1h-7.4a37 37 0 0 1-5 .1H26.7l-.1.1v-.1l-.1-.1v-.3l-.3-.4H26z"/><path fill="#1B1B20" d="M25.8 64.9a.7.7 0 0 0-.2.5v1.5a.7.7 0 1 0 1.4 0v-1.5c0-.2 0-.4-.2-.5a.7.7 0 0 0-1 0z"/><path fill="#1B1B20" d="M26.3 67.8a1 1 0 0 1-.9-1v-.2-1.2a.9.9 0 0 1 .2-.7.9.9 0 0 1 1.6.7v1.5a.9.9 0 0 1-.9.9zm0-3a.5.5 0 0 0-.4.2.5.5 0 0 0-.1.4v1.4a.5.5 0 0 0 .2.4.5.5 0 0 0 .3.2.5.5 0 0 0 .5-.5v-.3-1.2c0-.1 0-.3-.2-.4l-.3-.1zM41.8 51a.7.7 0 0 0-.5.8c0 .2.2.3.3.4l.2.2.3.3.2.4.2.5v1a24.6 24.6 0 0 1 .2 3v4.2l.1 2v2l-.2.2-.4.2a.7.7 0 0 0 .7 1.2l.2-.1.4-.2.5-.7.3-1.2a61.8 61.8 0 0 0-.1-3v-2V59c0-1.3 0-2.6-.2-3.8v-1l-.2-1a3 3 0 0 0-1.5-2.3.6.6 0 0 0-.3 0h-.2z"/><path fill="#1B1B20" d="M42.5 67.7a.9.9 0 0 1-.8-1.1.8.8 0 0 1 .4-.6l.3-.2.2-.1v-.2-1.7-2.2V59.7l-.1-2.1a41.4 41.4 0 0 0-.2-3.5v-.4L42 53a3 3 0 0 0-.2-.3l-.2-.3-.2-.1a1 1 0 0 1-.4-.5.9.9 0 0 1 .6-1.1.9.9 0 0 1 .7 0l.3.3a3 3 0 0 1 1 1.1l.3 1 .1.8v.6l.1.7.1 3.4v1.7a15.5 15.5 0 0 0 0 1.3l.1.5a23.3 23.3 0 0 1-.2 4.3 2 2 0 0 1-.6.7l-.4.3-.2.1a1 1 0 0 1-.5.1zM42 51.1h-.2a.5.5 0 0 0-.3.7l.2.3.2.1.4.3.2.5.2.6v.5a17 17 0 0 0 .1 1.4 42.6 42.6 0 0 1 .1 4.2v2.1l.1 2v2l-.1.1-.2.2a4 4 0 0 1-.4.3.5.5 0 0 0-.2.3.5.5 0 0 0 0 .4.5.5 0 0 0 .7.1 9.7 9.7 0 0 0 .5-.3c.2-.2.4-.3.5-.6.2-.3.3-.7.3-1.1a68.3 68.3 0 0 0-.1-3v-.5-.5c-.1-.3-.1-.5 0-.8v-1.7c0-1.1 0-2.3-.2-3.4v-.7l-.1-.6v-.7a2.9 2.9 0 0 0-.8-1.5l-.4-.4-.3-.2H42zM52 52.2a245.4 245.4 0 0 1 .2 4.4v7.2l.1.4v.5a.7.7 0 0 0 .2.5.7.7 0 0 0 1 0l.2-.5v-.5-.6l-.1-1v-2.2V56 55l-.1-.9v-2a.7.7 0 0 0-1.5 0z"/><path fill="#1B1B20" d="M53 65.6a1 1 0 0 1-.9-1V63l-.1-1.5V60v-3.3a29.6 29.6 0 0 0-.2-3.1v-1.3a.9.9 0 0 1 .3-.7.9.9 0 0 1 1.5.7v2l.1.5V56l.1 3.5v4.8c.1.1.1.3 0 .4 0 .3 0 .5-.2.6a1 1 0 0 1-.6.3zm-.8-13.4v2.3l.2 2V62.9l.1 1.5v.4c0 .1 0 .3.2.4a.5.5 0 0 0 .7 0l.1-.4v-1.4a26.1 26.1 0 0 1 0-1.6v-2.2l-.1-3.5a20.2 20.2 0 0 0 0-1.3l-.1-.5v-2a.5.5 0 0 0-1-.4.5.5 0 0 0 0 .4z"/><path fill="#1B1B20" d="M68.3 50.2H55.8a13.1 13.1 0 0 0-2.6.2 1.5 1.5 0 0 0-.9.8c-.2.4-.2 1-.1 1.5a.7.7 0 1 0 1.3-.4V52v-.2h.1l.4-.2h14.3a.7.7 0 1 0 0-1.4z"/><path fill="#1B1B20" d="M52.9 53.4a1 1 0 0 1-.8-.4l-.1-.3c-.1-.5 0-1.1.2-1.6a1.7 1.7 0 0 1 1-.9l.5-.1 1.8-.1h12.8a.9.9 0 1 1 0 1.8H55a8.4 8.4 0 0 0-1.1 0v.5a1 1 0 0 1-1 1.1zm2.2-3a9 9 0 0 0-1.9.2 1.3 1.3 0 0 0-.7.7c-.2.4-.2.9-.1 1.3a.5.5 0 0 0 .2.3.5.5 0 0 0 .4 0 .5.5 0 0 0 .3-.5v-.1-.3l.1-.3.1-.2a3.9 3.9 0 0 1 1.4-.1h13.4a.5.5 0 0 0 0-1v-.2.2H55.1zM52.6 65l-.4.4-.1.6v.3l.2.4a1.2 1.2 0 0 0 1 .6h10.9l4.2-.2a.7.7 0 1 0 0-1.4l-5 .1h-2.1a37.5 37.5 0 0 1-5 .2h-2.7l-.1-.4a.7.7 0 0 0-.4-.4.7.7 0 0 0-.5-.1zm1 1z"/><path fill="#1B1B20" d="M54.2 67.6h-.9v-.1a1.4 1.4 0 0 1-1.3-1.2l-.1-.3.1-.7.5-.4h.7a.9.9 0 0 1 .5.6v.2H63.4l5-.2c.2 0 .5.1.6.3a.9.9 0 0 1-.6 1.5l-4.2.1H60.7c-1.2.2-2.5.2-3.8.2h-2.7zm-1.4-2.3h-.2l-.3.2v.7l.2.4a1 1 0 0 0 .8.5h10.9a225.4 225.4 0 0 0 4.5-.3.5.5 0 0 0 0-.8.5.5 0 0 0-.3 0H61.3a37 37 0 0 1-5 .2H53.4V66l-.1-.3a.5.5 0 0 0-.5-.4z"/><path fill="#1B1B20" d="M52.5 64.3a.7.7 0 0 0-.2.5v1.5a.7.7 0 1 0 1.4 0v-1.5c0-.2 0-.4-.2-.5a.7.7 0 0 0-1 0z"/><path fill="#1B1B20" d="M53 67.2a1 1 0 0 1-.9-1V66v-1.2a.9.9 0 0 1 .3-.6 1 1 0 0 1 1.3 0l.2.6v1.5a.9.9 0 0 1-.9.9zm0-3a.5.5 0 0 0-.3.2.5.5 0 0 0-.2.4v1.5a.5.5 0 0 0 .2.3.5.5 0 0 0 .3.2.5.5 0 0 0 .5-.5V66v-1.2l-.1-.4-.4-.1zM68.5 50.4a.7.7 0 0 0-.2 1.3l.2.1.3.3.3.4.1.6v.9a22.8 22.8 0 0 1 .2 3v3.2l.1 1v4l-.2.2-.4.2a.7.7 0 1 0 .7 1.2 11.8 11.8 0 0 0 .6-.3l.5-.7.3-1.2a61.8 61.8 0 0 0 0-3l-.1-1v-1-1.1l-.1-3.8-.1-1-.1-1a3.1 3.1 0 0 0-.8-1.6l-.5-.4-.3-.3a.6.6 0 0 0-.3 0h-.2z"/><path fill="#1B1B20" d="M69.3 67.1a.9.9 0 0 1-.5-1.7c.2 0 .3 0 .4-.2h.1v-.3-1.7V61v-1.8V57a42 42 0 0 0-.3-3.5v-.4l-.1-.6a3 3 0 0 0-.2-.3l-.3-.2-.2-.2a.9.9 0 1 1 1-1.5l.3.2a3 3 0 0 1 1 1.1l.2 1 .1.8v.6l.1.7.1 3.4v1.7a15.5 15.5 0 0 0 0 1.3l.1.5a23.3 23.3 0 0 1-.2 4.3 2 2 0 0 1-.6.7l-.3.3-.3.1a1 1 0 0 1-.4.1zm-.7-16.5a.5.5 0 0 0-.4.4v.2l.3.3.2.2.3.3.2.4.2.6v.9a20.3 20.3 0 0 1 .2 3V61l.1.2v4.1l-.3.3-.4.2a.5.5 0 0 0-.2.3.5.5 0 0 0 0 .4.5.5 0 0 0 .7.2l.3-.2.2-.1.6-.7.2-1a64.9 64.9 0 0 0 0-3l-.1-.6v-.5-2.5l-.1-3.4-.1-.7v-.6l-.1-.7a2.9 2.9 0 0 0-.7-1.5l-.4-.3-.4-.3h-.3zM79.3 51.4v2.3c.2.7.2 1.5.2 2.2V63l.1.5v.5a.7.7 0 0 0 .2.5.7.7 0 0 0 1 0l.2-.5v-1.1-1.1-2.2l-.1-4.4v-.8l-.1-1v-2a.7.7 0 0 0-1.4 0z"/><path fill="#1B1B20" d="M80.3 64.9a1 1 0 0 1-.9-1v-1.8-2.9l-.1-3.3-.1-2.1v-2.4a.9.9 0 0 1 .2-.6.9.9 0 0 1 1.6.6v.7a31 31 0 0 0 0 1.9V55.2l.1 3.5V62.6l.1 1v.4c0 .2 0 .4-.3.6-.1.2-.3.3-.6.3zm-.2-14a.5.5 0 0 0-.5.5v2.4l.1 2V62.2l.1 1.4v.5c0 .1 0 .2.2.3a.5.5 0 0 0 .7 0l.1-.3v-1.4-.8V58.7l-.1-3.5v-.8-.4l-.1-.5V51.4a.5.5 0 0 0-.5-.5z"/><path fill="#1B1B20" d="M95.6 49.4H83.1a13 13 0 0 0-2.6.3 1.5 1.5 0 0 0-.9.7c-.2.5-.2 1-.1 1.6a.7.7 0 0 0 1.3-.4v-.3l.1-.2V51h.4l1-.1h13.3a.7.7 0 1 0 0-1.5z"/><path fill="#1B1B20" d="M80.2 52.7a1 1 0 0 1-.8-.4l-.1-.3c-.1-.6 0-1.1.2-1.6a1.7 1.7 0 0 1 1-1h.5c.6-.1 1.2-.2 1.8-.1h12.8a.9.9 0 0 1 0 1.7H82.2a8.4 8.4 0 0 0-1.1.2V51.5a1 1 0 0 1-1 1.2zm2.3-3a9 9 0 0 0-2 .1 1.3 1.3 0 0 0-.7.7c-.2.5-.2 1-.1 1.4a.5.5 0 0 0 .2.3.5.5 0 0 0 .4 0 .5.5 0 0 0 .4-.6v-.3-.3l.1-.2h.5l1-.1h13.3a.5.5 0 0 0 0-1v-.3.2H82.5zM80 64.4a.7.7 0 0 0-.6.8v.3l.2.5a1.2 1.2 0 0 0 1 .6H88l1-.1h2.6l4.1-.1a.7.7 0 1 0 0-1.4h-5.4l-1.7.1a37.5 37.5 0 0 1-5 .1h-2.7l-.1-.3a.7.7 0 0 0-.4-.5.7.7 0 0 0-.5 0zm.9 1z"/><path fill="#1B1B20" d="M81.5 66.8h-.9a1.4 1.4 0 0 1-1.3-1.2v-1c.1-.2.3-.4.6-.4a1 1 0 0 1 1 .3v.5h7.6l1.8-.1h.4l5-.1c.2 0 .5 0 .6.2a1 1 0 0 1 .3.7 1 1 0 0 1-.9.9h-6.1l-.7.1H88l-3.8.1h-2.7zm-1.4-2.3H80c-.2 0-.3.2-.3.3-.1.1-.1.2 0 .4v.3l.1.4a1 1 0 0 0 .8.5h8l.3-.1h2.7A226 226 0 0 0 96 66a.5.5 0 0 0 0-.8.5.5 0 0 0-.3-.1h-5.4l-1.7.1a37 37 0 0 1-5 .1H80.7v-.2l-.1-.2V65a.5.5 0 0 0-.5-.4z"/><path fill="#1B1B20" d="M79.8 63.6a.7.7 0 0 0-.2.5v1.4a.7.7 0 0 0 1.5 0v-1.4c0-.2-.1-.4-.3-.5a.7.7 0 0 0-1 0z"/><path fill="#1B1B20" d="M80.4 66.4a1 1 0 0 1-1-.9v-.2V64a.9.9 0 0 1 .3-.7 1 1 0 0 1 1.3 0l.2.6v1.5a.9.9 0 0 1-.8 1zm0-2.8a.5.5 0 0 0-.6.4v1.5a.5.5 0 0 0 .6.5.5.5 0 0 0 .5-.5v-.2V64l-.2-.4-.4-.1zM95.8 49.6a.7.7 0 0 0-.1 1.3l.2.2.2.3.3.4.1.5v1a22.8 22.8 0 0 1 .2 3v3.2l.1 1v4l-.2.2-.4.2A.7.7 0 0 0 97 66l.3-.1.3-.3c.2-.1.4-.3.5-.6l.3-1.2a61.9 61.9 0 0 0 0-3l-.1-1v-1.1-1L98 54l-.1-1-.1-1a3.1 3.1 0 0 0-.8-1.7l-.4-.4a58.3 58.3 0 0 0-.7-.3h-.2z"/><path fill="#1B1B20" d="M96.6 66.4a.9.9 0 0 1-.8-.4 1 1 0 0 1 0-1l.4-.3.3-.2.1-.1v-.2l.1-.7v-.1-1-2l-.1-.1v-2-2a41.5 41.5 0 0 0-.2-3v-.5-.4l-.2-.6-.2-.3-.3-.3-.2-.1a1 1 0 0 1-.4-.5.9.9 0 0 1 1.4-1l.3.2a3 3 0 0 1 1 1.1l.3 1v1.4l.2.6v6.4a18 18 0 0 1 .2 1.5 63 63 0 0 1-.3 3.4 2 2 0 0 1-.6.7l-.3.2-.3.2a1 1 0 0 1-.4 0zm-.7-16.6a.5.5 0 0 0-.4.7l.3.3.2.1.3.3.3.5a3.8 3.8 0 0 1 .2 1v.5a21.6 21.6 0 0 1 .1 3v3.3l.1.8v.2a28.4 28.4 0 0 1 .1 2.9V64.2l-.1.3v.1l-.3.2-.4.3a.4.4 0 0 0-.2.3v.4a.5.5 0 0 0 .8.1l.2-.1.2-.2.6-.6.2-1.1a65.6 65.6 0 0 0 0-3v-.5l-.1-.5v-2.5l-.1-3.4v-.7l-.1-.6-.1-.7a2.9 2.9 0 0 0-.7-1.5l-.4-.4-.4-.2H96zM25.4 76.3v1.2l.1 1 .1 2.2v7.2l.1.4v.5a.7.7 0 0 0 .2.5.7.7 0 0 0 1 0l.2-.5v-1.1-3.2L27 80v-.9l-.1-.9v-2a.7.7 0 1 0-1.5 0z"/><path fill="#1B1B20" d="M26.4 89.7a1 1 0 0 1-.8-.6v-.3-.4l-.1-.5v-1V84l-.1-3.3-.1-2.1v-2.3a.9.9 0 0 1 .2-.7.9.9 0 0 1 1.6.7v.6a31 31 0 0 0 0 2V80l.1 3.4V87.4l.1 1v.4c0 .3 0 .5-.3.6a1 1 0 0 1-.6.3zm-.2-14a.5.5 0 0 0-.5.4v2.5l.1 2V88l.1.4v.5c0 .1 0 .3.2.4a.5.5 0 0 0 .7 0l.1-.4v-1.4-.8V83.5l-.1-3.4v-.9-.3l-.1-.6v-2a.5.5 0 0 0-.5-.5z"/><path fill="#1B1B20" d="M41.7 74.3H29.2a13 13 0 0 0-2.6.2 1.5 1.5 0 0 0-.9.8c-.2.4-.2 1-.1 1.5a.7.7 0 1 0 1.3-.4V76l.1-.2.4-.2h14.3a.7.7 0 1 0 0-1.4z"/><path fill="#1B1B20" d="M26.3 77.5a1 1 0 0 1-.7-.4l-.2-.3c-.1-.5 0-1.1.2-1.6a1.7 1.7 0 0 1 1-.9l.5-.1 1.8-.1h12.8a.9.9 0 0 1 0 1.8H28.3a8.4 8.4 0 0 0-1.1 0v.5a1 1 0 0 1-1 1.1zm2.3-3a9 9 0 0 0-2 .2 1.3 1.3 0 0 0-.7.7c-.2.4-.2.9-.1 1.3a.5.5 0 0 0 .2.3.5.5 0 0 0 .4 0 .5.5 0 0 0 .4-.5v-.1-.3-.3l.1-.2h.5l1-.1h13.3a.5.5 0 0 0 0-1v-.2.2H28.6zM26 89.2a.7.7 0 0 0-.5.9v.3l.2.5a1.2 1.2 0 0 0 1 .5H37.7l4.1-.2a.7.7 0 1 0 0-1.4l-5 .1h-2.1a38.4 38.4 0 0 1-5 .2H27l-.1-.4a.7.7 0 0 0-.4-.4.7.7 0 0 0-.5-.1zm1 1z"/><path fill="#1B1B20" d="M27.6 91.7h-.9v-.1a1.4 1.4 0 0 1-1.3-1.2v-1a1 1 0 0 1 1.7.2v.2H37l5-.2c.2 0 .4.1.5.3a1 1 0 0 1 .3.6 1 1 0 0 1-.9 1H34.1c-1.2.2-2.5.2-3.8.2h-2.7zm-1.4-2.3H26c-.2 0-.3.1-.3.2a28.3 28.3 0 0 1 .2 1.1 1 1 0 0 0 .7.5h9.4a247.2 247.2 0 0 0 6-.3c.2-.1.2-.3.2-.4a.5.5 0 0 0-.1-.3.4.4 0 0 0-.4-.2l-5 .1h-2.1a37 37 0 0 1-5 .2H26.8V90l-.1-.3c0-.2-.1-.3-.3-.4h-.2z"/><path fill="#1B1B20" d="M26 88.4a.7.7 0 0 0-.3.5v1.5a.7.7 0 1 0 1.5 0v-1.5c0-.2-.1-.4-.3-.5a.7.7 0 0 0-1 0z"/><path fill="#1B1B20" d="M26.5 91.3a1 1 0 0 1-1-1v-.2V89a.9.9 0 0 1 .3-.6 1 1 0 0 1 1.3 0l.2.6v1.5a.9.9 0 0 1-.8.9zm-.4-2.8a.5.5 0 0 0-.2.4v1.5a.5.5 0 0 0 .2.3.5.5 0 0 0 .4.2.5.5 0 0 0 .5-.5V90 89l-.2-.4a.5.5 0 0 0-.7 0zM42 74.5a.7.7 0 0 0-.2 1.3l.2.1.3.3.2.4.1.6.1.9a22.8 22.8 0 0 1 .1 3v3.2l.1 1v4l-.2.2-.4.2A.7.7 0 0 0 43 91l.3-.1.3-.2.6-.7.2-1.2a61.9 61.9 0 0 0 0-3l-.1-1v-1-1.1l-.1-3.8-.1-1-.1-1a3.1 3.1 0 0 0-.8-1.6l-.4-.4-.3-.3a.6.6 0 0 0-.4 0H42z"/><path fill="#1B1B20" d="M42.7 91.2a.9.9 0 0 1-.8-.4 1 1 0 0 1 0-1l.4-.3s.2 0 .3-.2h.1V89l.1-.7v-1V85l-.1-.8v-1V81a41.5 41.5 0 0 0-.2-3v-.5-.4l-.2-.6a3 3 0 0 0-.2-.3l-.3-.2-.2-.2a1 1 0 0 1-.4-.5.9.9 0 0 1 1.4-1l.3.2a3 3 0 0 1 1 1.1l.3 1v.8l.1.6v.7l.2 3.4v3.5a23.4 23.4 0 0 1-.2 4.3 2 2 0 0 1-.6.7l-.3.3-.3.1a1 1 0 0 1-.4.1zM42 74.7a.5.5 0 0 0-.4.6l.3.3.2.2.3.3.3.4a3.8 3.8 0 0 1 .2 1.1 14.4 14.4 0 0 0 0 1.4 42.4 42.4 0 0 1 .2 4.2v2.1l.1 2V89l-.1.3-.3.3-.4.2a.4.4 0 0 0-.2.3.5.5 0 0 0 0 .4.5.5 0 0 0 .8.2 8.2 8.2 0 0 0 .4-.3c.3-.2.5-.4.6-.7l.2-1a65.5 65.5 0 0 0-.1-5v-1.5l-.1-3.5v-.7l-.1-.6-.1-.7a2.9 2.9 0 0 0-1.1-1.8l-.4-.3H42zM52.2 75.7v2.2l.1 2.2V86.4l.1.9v.9a.7.7 0 0 0 .5.7.7.7 0 0 0 .7-.2c.2-.1.2-.3.2-.5v-.5-.6-1-2.2-4.4l-.1-.9-.1-.9v-2a.7.7 0 0 0-1.4 0z"/><path fill="#1B1B20" d="M53.2 89.1a1 1 0 0 1-.9-.5v-.4-.4l-.1-1.4v-3-3.3a29.5 29.5 0 0 0-.2-3v-1.4a.9.9 0 0 1 .2-.7.9.9 0 0 1 1.6.7v2.9l.1.9v7.3l.1 1v.4c0 .3 0 .5-.2.7a1 1 0 0 1-.6.2zm-.3-14a.5.5 0 0 0-.5.4V78l.1 2.1v6.2l.1 1.5v.4l.2.4a.5.5 0 0 0 .7 0l.2-.4v-.4l-.1-1V86v-3-3.5a20.2 20.2 0 0 0-.2-1.2v-.6-2a.5.5 0 0 0-.5-.5z"/><path fill="#1B1B20" d="M68.5 73.7H55.9a13 13 0 0 0-2.6.2 1.5 1.5 0 0 0-.8.8c-.2.5-.3 1-.2 1.5a.7.7 0 0 0 1.4-.4v-.3-.2l.4-.1h8.3l6-.1a.7.7 0 1 0 0-1.4z"/><path fill="#1B1B20" d="M53 77a1 1 0 0 1-.7-.4l-.2-.4c0-.5 0-1 .2-1.6a1.7 1.7 0 0 1 1-.9l.5-.1 1.8-.1h12.9a.9.9 0 1 1 0 1.8H55a8.1 8.1 0 0 0-1.2.1v.4a.9.9 0 0 1-.9 1.1zm2.3-3.1a8.9 8.9 0 0 0-2 .2 1.3 1.3 0 0 0-.6.7c-.2.4-.3.9-.2 1.4a.4.4 0 0 0 .2.2.5.5 0 0 0 .4.1.5.5 0 0 0 .4-.6v-.4-.3l.2-.1.4-.1h8.3l6-.1a.5.5 0 0 0 0-1v-.2.2H55.4zM52.7 88.6l-.4.3V89.8c0 .2 0 .3.2.5a1.2 1.2 0 0 0 1 .5H64.3l4.1-.2a.7.7 0 0 0 0-1.4l-5 .1h-2.1a38.4 38.4 0 0 1-5 .2h-2.7l-.1-.4a.7.7 0 0 0-.3-.4.7.7 0 0 0-.6 0zm1 1z"/><path fill="#1B1B20" d="M54.4 91h-1a1.4 1.4 0 0 1-1.1-.6l-.2-.6v-1a1 1 0 0 1 1-.4 1 1 0 0 1 .5.3l.2.4v.2h5.5l2.1-.1h2.2l5-.2a.9.9 0 0 1 0 1.8h-.2l-4 .1h-3.5c-1.3.2-2.6.2-3.9.2h-2.6zm-1.5-2.2h-.1l-.3.2v.4a28.3 28.3 0 0 1 .2.8 1 1 0 0 0 .7.4H64.4l4-.2h.1a.5.5 0 0 0 .6-.5.5.5 0 0 0-.2-.3.4.4 0 0 0-.3-.2l-5 .1h-2.2a38.3 38.3 0 0 1-5 .2H53.6l-.1-.2V89l-.3-.2-.3-.1z"/><path fill="#1B1B20" d="M52.7 87.8a.7.7 0 0 0-.2.5v1.5a.7.7 0 0 0 1.4 0v-1.5l-.2-.5a.7.7 0 0 0-1 0z"/><path fill="#1B1B20" d="M53.2 90.7a1 1 0 0 1-1-1v-.2-1.2a.9.9 0 0 1 .3-.6 1 1 0 0 1 1.3 0c.2.1.3.4.3.6v1.5a.9.9 0 0 1-1 .9zm0-2.9a.5.5 0 0 0-.4.2.5.5 0 0 0-.1.3v1.5a.5.5 0 0 0 .1.3.5.5 0 0 0 .4.2.5.5 0 0 0 .5-.5v-.3-1.2c0-.1 0-.2-.2-.3a.5.5 0 0 0-.3-.2zM68.7 73.9a.7.7 0 0 0-.5.9l.3.4.2.1.3.3.2.4.1.6.1.9a24.2 24.2 0 0 1 .2 3v4.2l.1 2v2h-.1l-.2.2-.3.2a.7.7 0 0 0 .7 1.2 19.4 19.4 0 0 0 .5-.3c.3-.2.5-.4.6-.7l.2-1.2a61.9 61.9 0 0 0 0-3l-.1-1v-1V82l-.1-3.8v-1l-.2-1a3 3 0 0 0-1.5-2.2.6.6 0 0 0-.4-.1h-.2z"/><path fill="#1B1B20" d="M69.4 90.6a.9.9 0 0 1-.9-.7 1 1 0 0 1 .2-.7l.3-.2.3-.2.2-.2v-.2-.7-1-2.2l-.1-.8v-1-2.2a41.5 41.5 0 0 0-.2-3V77v-.4l-.2-.5-.2-.4-.2-.2-.2-.2a.9.9 0 1 1 1-1.5l.2.2.5.5.5.7.3 1v.7l.1.6.1.7V83.3l.1.8v1a23.4 23.4 0 0 1-.1 4.3 2 2 0 0 1-.6.8l-.4.2-.2.1a1 1 0 0 1-.5.1zM69 74.1h-.2a.5.5 0 0 0-.3.6c0 .1 0 .2.2.3l.2.2.3.3.3.4a3.8 3.8 0 0 1 .2 1.1 16.1 16.1 0 0 0 .1 1.5 42.6 42.6 0 0 1 0 4.1v1.1l.1.8v.2a28.3 28.3 0 0 1 .1 3v1.1h-.1l-.2.3-.4.2a.5.5 0 0 0-.3.3.5.5 0 0 0 0 .4.5.5 0 0 0 .8.2l.2-.2.3-.1.5-.6c.2-.4.2-.8.2-1.2a65.4 65.4 0 0 0 0-3.5l-.1-.4v-2.5l-.1-3.5v-.7l-.1-.5v-.7a2.9 2.9 0 0 0-1.2-2l-.3-.1-.2-.1zM68.3 97.8H55.1a9.1 9.1 0 0 0-2 .2 1.5 1.5 0 0 0-.8.8l-.2.6V104.2l.1 3.3v3.9l.1.4v1l-.1.2-.1.6v.3l.2.5a1.2 1.2 0 0 0 1 .5h10.9l4.1-.2h.1a.7.7 0 0 0 .5-.2h.7a19.4 19.4 0 0 0 .5-.3v-.1l.6-.6c.2-.4.3-.8.3-1.3a68.8 68.8 0 0 0 0-3l-.1-.5a23.7 23.7 0 0 1 0-1.3v-.2V105.8l-.1-3.5-.1-.7v-.2-.4l-.1-.7a3 3 0 0 0-1.2-2 58.3 58.3 0 0 0-1-.5z"/><path fill="#1B1B20" d="M54.3 115.2h-.2-.8a1.4 1.4 0 0 1-1.3-1.3v-.3c-.2-.2-.1-.5 0-.7l.1-.1v-.3-.2V110.5L52 109v-1.6-3.3a29.8 29.8 0 0 0-.2-3v-1.4c0-.2 0-.3.2-.5l.1-.6a1.7 1.7 0 0 1 1-.9l.6-.1 1.4-.1h13.2c.2 0 .4 0 .6.2l.3.1.3.2-.1.2.1-.1a2.7 2.7 0 0 1 1 1l.3 1v1.4l.2.7v5.1a15.6 15.6 0 0 0 0 1.3 19.1 19.1 0 0 1 .2 3.5c0 .5-.1 1-.3 1.3a2 2 0 0 1-.6.7v.1l-.3.2-.3.1a1 1 0 0 1-.7.1 1 1 0 0 1-.6.2h-.2l-4 .1H61.4l-.7.1h-6.3zm.8-17.2a9 9 0 0 0-1.9.2 1.3 1.3 0 0 0-.7.7l-.2.5v2.7a30.6 30.6 0 0 1 .1 5.4V110.4l.1 1.5v1l-.2.2v.4a19.8 19.8 0 0 1 .2.8 1 1 0 0 0 .8.4H64.3l4-.2h.2a.5.5 0 0 0 .4-.2h.2a.6.6 0 0 0 .5 0l.3-.2.2-.1.6-.6.2-1.2a68.5 68.5 0 0 0 0-3l-.1-.4v-.5-2.5l-.1-3.5-.1-.6v-.6l-.1-.8a3 3 0 0 0-.7-1.5l-.4-.3-.4-.3h-.2a.5.5 0 0 0-.4-.2H55.1zM95.8 73H82.6a9 9 0 0 0-2 .2 1.5 1.5 0 0 0-.8.8l-.2.6-.1.3V77.3l.1 2V85.7l.1.5v2.1c-.2.2-.2.4-.1.5v.4c0 .1 0 .3.2.4a1.2 1.2 0 0 0 1 .6h10.9l4-.2h.1a.7.7 0 0 0 .6-.3l.3.1h.4l.2-.2.3-.2c.3-.2.5-.4.6-.7l.2-1.2a65.5 65.5 0 0 0-.1-4.8v-.3V81l-.1-3.4v-.7l-.1-.3v-.3l-.1-.7a3 3 0 0 0-1.2-2 29.3 29.3 0 0 0-.6-.4.7.7 0 0 0-.4-.2z"/><path fill="#1B1B20" d="M81.6 90.4h-.8l-.1-.1a1.4 1.4 0 0 1-1-.7c-.2-.1-.2-.3-.3-.5v-.3-.7l.2-.2v-.2-.2-.4l-.1-1.5V82.7v-3.3l-.2-2.1v-2.4l.1-.4.2-.6a1.7 1.7 0 0 1 1-1h.5l1.5-.1h13.2c.2 0 .4 0 .6.2h.2l.3.3a2.9 2.9 0 0 1 1 1.1l.3 1 .1.8v.6l.1.7.1 3.4v3l.1.5a22.3 22.3 0 0 1-.2 4.3 2 2 0 0 1-.6.7l-.4.3-.2.1a1 1 0 0 1-.7 0 1 1 0 0 1-.6.3h-.2l-4 .1H88.2l-3.8.1h-2.8zm1-17.2a9 9 0 0 0-2 .2 1.3 1.3 0 0 0-.6.6l-.2.6-.1.3v2.4a31.3 31.3 0 0 1 .2 5.3v5.5l-.1.2v.7c0 .2 0 .3.2.4a1 1 0 0 0 .7.5h8.4l.5-.1H95.8a.5.5 0 0 0 .4-.3l.1-.1h.2a.5.5 0 0 0 .5 0h.2l.2-.2.1-.1c.2-.1.4-.3.5-.6.2-.3.2-.7.2-1.1a68.5 68.5 0 0 0 0-3.5l-.1-.5V81l-.1-3.4V76.6l-.1-.4-.1-.7a2.9 2.9 0 0 0-1.1-1.9l-.3-.2h-.2v-.1a.5.5 0 0 0-.4-.2H82.6z"/></svg>